<svg width="85" height="25" viewBox="0 0 85 25" fill="none" xmlns="http://www.w3.org/2000/svg">
<path d="M73 0H45V25H73V0Z" fill="#FC79D7"/>
<path d="M54.9053 12.6899H83.5798" stroke="#211915" stroke-width="0.75" stroke-miterlimit="10"/>
<path d="M79.7464 17.4181L78.958 16.571L83.1471 12.6901L78.958 8.82457L79.7464 7.97754L84.8475 12.6901L79.7464 17.4181Z" fill="#211915"/>
<path d="M3.12012 14.9209L5.21484 8.89062H6.23535L3.60352 16H2.87598L3.12012 14.9209ZM1.16211 8.89062L3.2373 14.9209L3.49609 16H2.76855L0.141602 8.89062H1.16211ZM13.1977 12.2207V12.6699C13.1977 13.2038 13.1309 13.6823 12.9975 14.1055C12.864 14.5286 12.6719 14.8883 12.4213 15.1846C12.1706 15.4808 11.8695 15.707 11.518 15.8633C11.1697 16.0195 10.779 16.0977 10.3461 16.0977C9.92617 16.0977 9.54043 16.0195 9.18887 15.8633C8.84056 15.707 8.53783 15.4808 8.28066 15.1846C8.02676 14.8883 7.82982 14.5286 7.68984 14.1055C7.54987 13.6823 7.47988 13.2038 7.47988 12.6699V12.2207C7.47988 11.6868 7.54824 11.21 7.68496 10.79C7.82493 10.3669 8.02187 10.0072 8.27578 9.71094C8.52969 9.41146 8.83079 9.18359 9.1791 9.02734C9.53066 8.87109 9.91641 8.79297 10.3363 8.79297C10.7693 8.79297 11.1599 8.87109 11.5082 9.02734C11.8598 9.18359 12.1609 9.41146 12.4115 9.71094C12.6654 10.0072 12.8591 10.3669 12.9926 10.79C13.1293 11.21 13.1977 11.6868 13.1977 12.2207ZM12.265 12.6699V12.2109C12.265 11.7878 12.2211 11.4134 12.1332 11.0879C12.0486 10.7624 11.9232 10.4889 11.7572 10.2676C11.5912 10.0462 11.3878 9.87858 11.1469 9.76465C10.9092 9.65072 10.6391 9.59375 10.3363 9.59375C10.0434 9.59375 9.77806 9.65072 9.54043 9.76465C9.30605 9.87858 9.10423 10.0462 8.93496 10.2676C8.76895 10.4889 8.64036 10.7624 8.54922 11.0879C8.45807 11.4134 8.4125 11.7878 8.4125 12.2109V12.6699C8.4125 13.0964 8.45807 13.474 8.54922 13.8027C8.64036 14.1283 8.77057 14.4033 8.93984 14.6279C9.11237 14.8493 9.31582 15.0169 9.5502 15.1309C9.78783 15.2448 10.0531 15.3018 10.3461 15.3018C10.6521 15.3018 10.9239 15.2448 11.1615 15.1309C11.3992 15.0169 11.5993 14.8493 11.7621 14.6279C11.9281 14.4033 12.0535 14.1283 12.1381 13.8027C12.2227 13.474 12.265 13.0964 12.265 12.6699ZM19.5203 15.2334V16H15.9656V15.2334H19.5203ZM16.1512 8.89062V16H15.2088V8.89062H16.1512ZM22.635 14.9209L24.7297 8.89062H25.7502L23.1184 16H22.3908L22.635 14.9209ZM20.677 8.89062L22.7521 14.9209L23.0109 16H22.2834L19.6564 8.89062H20.677ZM31.8238 15.2334V16H28.0592V15.2334H31.8238ZM28.2496 8.89062V16H27.3072V8.89062H28.2496ZM31.3258 11.9473V12.7139H28.0592V11.9473H31.3258ZM31.775 8.89062V9.66211H28.0592V8.89062H31.775ZM33.5908 8.89062H35.9443C36.4782 8.89062 36.929 8.97201 37.2969 9.13477C37.668 9.29753 37.9495 9.53841 38.1416 9.85742C38.3369 10.1732 38.4346 10.5622 38.4346 11.0244C38.4346 11.3499 38.3678 11.6478 38.2344 11.918C38.1042 12.1849 37.9154 12.4128 37.668 12.6016C37.4238 12.7871 37.1309 12.9255 36.7891 13.0166L36.5254 13.1191H34.3135L34.3037 12.3525H35.9736C36.3122 12.3525 36.5938 12.2939 36.8184 12.1768C37.043 12.0563 37.2122 11.8952 37.3262 11.6934C37.4401 11.4915 37.4971 11.2686 37.4971 11.0244C37.4971 10.751 37.4434 10.5117 37.3359 10.3066C37.2285 10.1016 37.0592 9.94368 36.8281 9.83301C36.6003 9.71908 36.3057 9.66211 35.9443 9.66211H34.5332V16H33.5908V8.89062ZM37.7461 16L36.0176 12.7773L36.999 12.7725L38.752 15.9414V16H37.7461Z" fill="#333233"/>
</svg>
