<svg width="17" height="17" viewBox="0 0 17 17" fill="none" xmlns="http://www.w3.org/2000/svg">
<path d="M11.2626 8.6529L15.906 4.09784C16.4759 3.53887 16.4759 2.63259 15.906 2.07317L14.8741 1.06083C14.3043 0.501859 13.3804 0.501859 12.8101 1.06083L8.1667 5.61589L3.52328 1.06083C2.95347 0.501859 2.02961 0.501859 1.45933 1.06083L0.42736 2.07317C-0.142453 2.63214 -0.142453 3.53842 0.42736 4.09784L5.07078 8.6529L0.42736 13.208C-0.142453 13.7669 -0.142453 14.6732 0.42736 15.2326L1.45933 16.245C2.02915 16.8039 2.95347 16.8039 3.52328 16.245L8.1667 11.6899L12.8101 16.245C13.3799 16.8039 14.3043 16.8039 14.8741 16.245L15.906 15.2326C16.4759 14.6737 16.4759 13.7674 15.906 13.208L11.2626 8.6529Z" fill="#20DCD1"/>
</svg>
