<svg width="18" height="18" viewBox="0 0 18 18" fill="none" xmlns="http://www.w3.org/2000/svg">
<path d="M9 0.28125C4.18475 0.28125 0.28125 4.18475 0.28125 9C0.28125 13.8152 4.18475 17.7188 9 17.7188C13.8152 17.7188 17.7188 13.8152 17.7188 9C17.7188 4.18475 13.8152 0.28125 9 0.28125ZM9 16.0312C5.11411 16.0312 1.96875 12.8865 1.96875 9C1.96875 5.11414 5.11351 1.96875 9 1.96875C12.8859 1.96875 16.0312 5.11351 16.0312 9C16.0312 12.8859 12.8865 16.0312 9 16.0312ZM12.7741 12.4782C12.4361 12.8197 11.1734 13.9335 9.11552 13.9335C6.21759 13.9335 4.17663 11.7741 4.17663 8.95658C4.17663 6.17389 6.29568 4.05577 9.09014 4.05577C11.0424 4.05577 12.2098 4.99163 12.5211 5.27847C12.5943 5.34574 12.6413 5.43675 12.6537 5.53535C12.6662 5.63395 12.6433 5.73377 12.5892 5.81713L11.9509 6.80548C11.8159 7.01466 11.5303 7.06148 11.3357 6.90817C11.0336 6.66995 10.2173 6.11582 9.16632 6.11582C7.46817 6.11582 6.42709 7.35789 6.42709 8.9312C6.42709 10.3933 7.37237 11.8735 9.17902 11.8735C10.3271 11.8735 11.1774 11.2042 11.4897 10.9164C11.675 10.7456 11.9677 10.7744 12.1162 10.9775L12.8146 11.9327C12.8741 12.0134 12.9027 12.1129 12.8953 12.2129C12.8879 12.313 12.8449 12.4071 12.7741 12.4782Z" fill="white"/>
</svg>
