<svg width="33" height="33" viewBox="0 0 33 33" fill="none" xmlns="http://www.w3.org/2000/svg">
<path d="M26 29.5999C25.9 29.5999 25.7 29.4999 25.7 29.4999L21.1 24.8999L18.8 29.0999C18.7 29.2999 18.5 29.3999 18.4 29.3999C18.2 29.3999 18 29.2999 17.9 29.0999L11.3 11.9999C11.2 11.8999 11.3 11.6999 11.3 11.5999C11.3 11.4999 11.5 11.3999 11.7 11.3999C11.7 11.3999 11.7 11.3999 11.8 11.3999C11.9 11.3999 11.9 11.3999 12 11.3999L29 17.8999C29.2 17.9999 29.3 18.0999 29.3 18.2999C29.3 18.4999 29.2 18.6999 29 18.7999L24.8 21.0999L29.4 25.5999C29.5 25.6999 29.6 25.7999 29.6 25.9999C29.6 26.0999 29.5 26.2999 29.4 26.3999L26.2 29.4999C26.2 29.5999 26.1 29.5999 26 29.5999ZM20.9 23.5999C21 23.5999 21.1 23.5999 21.2 23.6999L25.9 28.3999L28.3 25.9999L23.6 21.2999C23.5 21.1999 23.4 20.9999 23.5 20.8999C23.5 20.6999 23.6 20.5999 23.8 20.4999L27.6 18.3999L12.6 12.5999L18.4 27.5999L20.5 23.7999C20.6 23.6999 20.7 23.5999 20.9 23.5999ZM7.60002 19.9999C7.50002 19.9999 7.30002 19.8999 7.30002 19.8999C7.10002 19.6999 7.10002 19.3999 7.30002 19.1999L9.50002 16.9999C9.60002 16.8999 9.70002 16.8999 9.80002 16.7999C10.1 16.7999 10.2 16.8999 10.3 17.0999C10.4 17.2999 10.3 17.4999 10.2 17.6999L8.00002 19.8999C7.80002 19.8999 7.70002 19.9999 7.60002 19.9999ZM3.90002 13.9999C3.60002 13.9999 3.40002 13.7999 3.40002 13.4999C3.40002 13.1999 3.60002 12.9999 3.90002 12.9999H9.10002C9.40002 12.9999 9.60002 13.1999 9.60002 13.4999C9.60002 13.7999 9.30002 13.9999 9.10002 13.9999H3.90002ZM17.3 10.2999C17.2 10.2999 17 10.1999 17 10.1999C16.9 10.0999 16.9 9.9999 16.9 9.7999C16.9 9.6999 16.9 9.4999 17 9.3999L19.2 7.1999C19.3 7.0999 19.4 7.0999 19.5 6.9999C19.8 6.9999 19.9 7.0999 20 7.2999C20.1 7.4999 20 7.6999 19.9 7.8999L17.7 10.0999C17.6 10.2999 17.4 10.2999 17.3 10.2999ZM9.40002 9.8999C9.30002 9.8999 9.10002 9.7999 9.00002 9.7999L6.90002 7.5999C6.70002 7.3999 6.70002 7.1999 6.70002 7.0999C6.70002 6.9999 6.90002 6.7999 7.10002 6.7999C7.30002 6.7999 7.40002 6.8999 7.50002 6.9999L9.70002 9.1999C9.80002 9.2999 9.80002 9.3999 9.80002 9.5999C9.80002 9.7999 9.90002 9.6999 9.80002 9.7999C9.70002 9.8999 9.60002 9.8999 9.40002 9.8999ZM13.5 9.5999C13.2 9.5999 13 9.3999 13 9.0999V3.8999C13 3.5999 13.2 3.3999 13.5 3.3999C13.8 3.3999 14 3.5999 14 3.8999V9.0999C14 9.2999 13.8 9.5999 13.5 9.5999Z" fill="white"/>
<path d="M13.5 3.49995C13.7 3.49995 13.9 3.69995 13.9 3.89995V9.09995C13.9 9.29995 13.7 9.49995 13.5 9.49995C13.3 9.49995 13.1 9.29995 13.1 9.09995V3.89995C13.2 3.69995 13.3 3.49995 13.5 3.49995ZM7.20005 6.79995C7.30005 6.79995 7.40005 6.79995 7.50005 6.89995L9.70005 9.09995C9.80005 9.19995 9.80005 9.49995 9.70005 9.59995C9.60005 9.79995 9.50005 9.79995 9.40005 9.79995C9.30005 9.79995 9.20005 9.79995 9.10005 9.69995L6.90005 7.49995C6.80005 7.39995 6.80005 7.19995 6.80005 7.09995C6.90005 6.99995 7.00005 6.89995 7.20005 6.79995C7.10005 6.79995 7.10005 6.79995 7.20005 6.79995C7.10005 6.79995 7.20005 6.79995 7.20005 6.79995ZM19.5 7.19995C19.6 7.19995 19.8 7.29995 19.8 7.39995C19.9 7.49995 19.8001 7.69995 19.7001 7.79995L17.5 9.99995C17.4 10.1 17.3 10.1 17.2 10.1C17.1 10.1 17 10.1 16.9 9.99995C17 9.99995 16.9 9.89995 16.9 9.79995C16.9 9.69995 16.9 9.59995 17 9.49995L19.2 7.29995C19.3 7.29995 19.4 7.19995 19.5 7.19995ZM11.8 11.4H11.9L29 18C29.1 18.1 29.2001 18.2 29.2001 18.3C29.2001 18.4 29.1 18.6 29 18.7L24.7001 21L29.4 25.7C29.5 25.8 29.5 25.9 29.5 26C29.5 26.1 29.5 26.1999 29.4 26.2999L26.2001 29.4C26.1 29.5 26 29.5 25.9 29.5C25.8 29.5 25.7001 29.5 25.6 29.4L21 24.7L18.7 29C18.6 29.1 18.5 29.2 18.4 29.2C18.3 29.2 18.1 29.1 18.1 29L11.5 11.9C11.5 11.8 11.5 11.7 11.5 11.6C11.5 11.5 11.6 11.4 11.8 11.4ZM18.4 28L20.6 23.9C20.7001 23.7999 20.8 23.7 20.9 23.7C20.9 23.7 20.9 23.7 21 23.7C21.1 23.7 21.2 23.6999 21.3 23.7999L26.1 28.6L28.7001 26L23.9 21.2C23.8 21.1 23.8 21 23.8 20.9C23.8 20.7999 23.9 20.7 24 20.6L28.1 18.4L12.6 12.4L18.4 28ZM9.10005 13.2C9.30005 13.2 9.50005 13.4 9.50005 13.6C9.50005 13.8 9.30005 14 9.10005 14H3.90005C3.70005 14 3.50005 13.8 3.50005 13.6C3.50005 13.4 3.70005 13.2 3.90005 13.2H9.10005ZM9.80005 16.9C9.90005 16.9 10.1 17 10.1 17.1C10.2 17.2 10.1 17.4 10 17.5L7.80005 19.7C7.70005 19.8 7.60005 19.7999 7.50005 19.7999C7.40005 19.7999 7.30005 19.8 7.20005 19.7C7.10005 19.6 7.00005 19.3 7.20005 19.2L9.50005 17C9.60005 16.9 9.70005 16.9 9.80005 16.9ZM13.5 3.19995C13.2 3.19995 12.9 3.49995 12.9 3.79995V8.99995C12.9 9.29995 13.2 9.59995 13.5 9.59995C13.8 9.59995 14.1 9.29995 14.1 8.99995V3.89995C14.1 3.49995 13.9 3.19995 13.5 3.19995ZM7.20005 6.59995H7.10005C6.80005 6.59995 6.70005 6.79995 6.60005 6.99995C6.50005 7.19995 6.60005 7.49995 6.80005 7.59995L9.00005 9.89995C9.10005 9.99995 9.30005 10.1 9.40005 10.1C9.60005 10.1 9.70005 9.99995 9.80005 9.89995C9.90005 9.79995 10 9.59995 10 9.49995C10 9.29995 9.90005 9.19995 9.80005 9.09995L7.70005 6.79995C7.50005 6.69995 7.40005 6.59995 7.20005 6.59995ZM19.5 6.99995C19.3 6.99995 19.1 7.09995 19 7.19995L16.8 9.39995C16.7 9.49995 16.6 9.69995 16.6 9.79995C16.6 9.99995 16.7 10.1 16.8 10.2C16.9 10.3 17.1 10.4 17.2 10.4C17.4 10.4 17.5 10.3 17.6 10.2L20 7.99995C20.2001 7.79995 20.2001 7.49995 20.1 7.29995C20 7.09995 19.8 6.99995 19.5 6.99995ZM11.8 11.2C11.5 11.2 11.4 11.3 11.3 11.5C11.2 11.7 11.2 11.9 11.3 12L17.9 29.1C18 29.3 18.2 29.5 18.4 29.5C18.7 29.5 18.9 29.4 19 29.2L21.2001 25.2L25.7001 29.6C25.8001 29.7 26 29.7999 26.1 29.7999C26.3001 29.7999 26.4 29.7 26.5 29.6L29.7001 26.5C29.8001 26.4 29.9 26.2 29.9 26.1C29.9 26 29.8001 25.8 29.7001 25.7L25.3 21.2999L29.3 19.1C29.5 19 29.6 18.8 29.6 18.5C29.6 18.3 29.4001 18 29.2001 18L12 11.2C11.9 11.2 11.9 11.2 11.8 11.2ZM18.5 27.4L12.9 12.9L27.4 18.5L23.8 20.4C23.6 20.5 23.5 20.6999 23.5 20.9C23.5 21.1 23.5 21.2999 23.7001 21.4L28.3 26L26 28.2L21.4 23.6C21.3 23.5 21.1 23.4 21 23.4H20.9C20.7 23.4 20.5 23.5 20.5 23.7L18.5 27.4ZM9.10005 12.9H3.90005C3.60005 12.9 3.30005 13.2 3.30005 13.5C3.30005 13.8 3.60005 14.1 3.90005 14.1H9.10005C9.40005 14.1 9.70005 13.8 9.70005 13.5C9.70005 13.2 9.40005 12.9 9.10005 12.9ZM9.80005 16.6L9.70005 17.1L9.80005 16.6C9.60005 16.6 9.40005 16.7 9.30005 16.8L7.10005 19C6.90005 19.2 6.90005 19.6 7.10005 19.9C7.20005 20 7.40005 20.1 7.50005 20.1C7.70005 20.1 7.80005 20 7.90005 19.9L10.1 17.7C10.3 17.5 10.3 17.2 10.2 17C10.3 16.8 10.1 16.6 9.80005 16.6Z" fill="white"/>
</svg>
