<svg width="33" height="33" viewBox="0 0 33 33" fill="none" xmlns="http://www.w3.org/2000/svg">
<path fill-rule="evenodd" clip-rule="evenodd" d="M6.80072 13.7825C7.9875 9.54957 11.8766 6.42838 16.5001 6.42838C22.0685 6.42838 26.5717 10.9557 26.5717 16.5C26.5717 20.3978 24.2958 23.9326 20.8096 25.5789L20.8096 22.9642C20.8096 22.5768 20.4948 22.2378 20.0832 22.2378C19.6958 22.2378 19.3568 22.5526 19.3568 22.9642L19.3568 27.2736C19.3568 27.661 19.6716 28 20.0832 28L24.4169 28C24.8043 28 25.1432 27.6852 25.1432 27.2736C25.1432 26.8862 24.8285 26.5473 24.4169 26.5473L22.0443 26.5473C22.5285 26.281 22.9643 25.9905 23.4244 25.6515C24.3444 24.9495 25.1675 24.1262 25.8454 23.182C27.2495 21.2453 28 18.921 28 16.4999C28 14.9504 27.6852 13.4494 27.1043 12.021C26.5232 10.6409 25.7 9.43035 24.6347 8.36522C23.5694 7.29991 22.3589 6.47679 20.979 5.8957C19.5506 5.29044 18.0494 4.99995 16.5 4.99995C14.9506 4.99995 13.4496 5.31474 12.0211 5.8957C10.641 6.47679 9.43048 7.29991 8.36534 8.36522C7.30004 9.43052 6.47692 10.6411 5.89583 12.021C5.6518 12.5968 5.45895 13.1845 5.31566 13.7825L6.80072 13.7825Z" fill="white"/>
</svg>
