<svg width="33" height="38" viewBox="0 0 33 38" fill="none" xmlns="http://www.w3.org/2000/svg">
<path d="M16.4 3.5H16.3L3.00005 11.1C2.90005 11.2 2.80005 11.3 2.80005 11.4V26.5C2.80005 26.6 2.90005 26.7 3.00005 26.8L16.3 34.4C16.4 34.5 16.5 34.5 16.7 34.4L30 26.9C30.1 26.8 30.2001 26.7 30.2001 26.6V11.5C30.2001 11.4 30.1 11.2 30 11.2L16.7 3.6C16.6 3.5 16.5 3.5 16.4 3.5ZM16.5 4.3L29.1 11.5L16.5 18.7L3.90005 11.4L16.5 4.3ZM29.5 12.1V26.4L16.9 33.6V19.2L29.5 12.1ZM3.50005 12.1L16.1 19.2V33.5L3.50005 26.4V12.1Z" fill="white" stroke="white" stroke-miterlimit="10"/>
</svg>
