<svg width="33" height="33" viewBox="0 0 33 33" fill="none" xmlns="http://www.w3.org/2000/svg">
<path d="M16.448 30.648C11.8015 30.648 8 26.8463 8 22.2V11.448C8 6.80146 11.8017 3 16.448 3C21.0945 3 24.896 6.80167 24.896 11.448V22.2C24.896 26.8463 21.0945 30.648 16.448 30.648ZM16.448 4.536C12.6463 4.536 9.536 7.64633 9.536 11.448V22.2C9.536 26.0017 12.6463 29.112 16.448 29.112C20.2497 29.112 23.36 26.0017 23.36 22.2V11.448C23.36 7.64633 20.2497 4.536 16.448 4.536Z" fill="white"/>
<path d="M16.448 12.6001C16.0256 12.6001 15.6801 12.2546 15.6801 11.8322V8.76012C15.6801 8.3377 16.0256 7.99219 16.448 7.99219C16.8704 7.99219 17.2159 8.33773 17.2159 8.76012V11.8322C17.2159 12.2546 16.8704 12.6001 16.448 12.6001Z" fill="white"/>
</svg>
