<svg width="33" height="33" viewBox="0 0 33 33" fill="none" xmlns="http://www.w3.org/2000/svg">
<path d="M19.2924 25.2395C19.3231 25.2216 19.342 25.1887 19.342 25.1531V14.8909L29.0707 5.16201C29.0895 5.14326 29.1 5.11782 29.1 5.0913V4C29.1 3.94477 29.0552 3.9 29 3.9H3C2.94477 3.9 2.9 3.94477 2.9 4V5.0913C2.9 5.11782 2.91054 5.14326 2.92929 5.16201L12.658 14.8907V28.9407C12.658 28.9765 12.6772 29.0096 12.7082 29.0274C12.7393 29.0452 12.7775 29.0451 12.8085 29.027L19.2924 25.2395ZM13.9494 14.3359C13.9494 14.3093 13.9388 14.2839 13.9201 14.2651L4.87846 5.22351L27.1538 5.22357L18.1121 14.2652C18.0934 14.284 18.0828 14.3094 18.0828 14.3359V24.0384L13.9494 26.6102V14.3359Z" fill="white" stroke="white" stroke-width="0.2" stroke-linejoin="round"/>
</svg>
