<svg width="35" height="35" viewBox="0 0 35 35" fill="none" xmlns="http://www.w3.org/2000/svg">
<path d="M17.4998 11.4602C14.1695 11.4602 11.4601 14.17 11.4601 17.4999C11.4601 20.8303 14.17 23.5397 17.4998 23.5397C20.8302 23.5397 23.5396 20.8298 23.5396 17.4999C23.5396 14.1696 20.8302 11.4602 17.4998 11.4602ZM17.4998 22.0199C15.0074 22.0199 12.98 19.9921 12.98 17.5C12.98 15.0076 15.0078 12.9802 17.4998 12.9802C19.9923 12.9802 22.0197 15.008 22.0197 17.5C22.0197 19.9925 19.9923 22.0199 17.4998 22.0199ZM33.3398 16.7398H29.4403C29.0616 10.7413 24.2586 5.93841 18.2602 5.55929V1.66019C18.2602 1.24085 17.9199 0.9 17.5 0.9C17.0807 0.9 16.7398 1.24029 16.7398 1.66019V5.55975C10.7413 5.93843 5.9384 10.7414 5.55929 16.7398H1.66019C1.24085 16.7398 0.9 17.0801 0.9 17.5C0.9 17.9193 1.24029 18.2602 1.66019 18.2602H5.55975C5.93843 24.2587 10.7414 29.0616 16.7398 29.4407V33.3398C16.7398 33.7592 17.0801 34.1 17.5 34.1C17.9193 34.1 18.2602 33.7597 18.2602 33.3398V29.4403C24.2587 29.0616 29.0616 24.2586 29.4407 18.2602H33.3398C33.7592 18.2602 34.1 17.9199 34.1 17.5C34.1 17.0807 33.7597 16.7398 33.3398 16.7398ZM17.4998 27.9602C11.7327 27.9602 7.03962 23.2677 7.03962 17.4999C7.03962 11.7328 11.7321 7.03971 17.4998 7.03971C23.267 7.03971 27.9601 11.7322 27.9601 17.4999C27.9601 23.2671 23.2671 27.9602 17.4998 27.9602Z" fill="white" stroke="white" stroke-width="0.2"/>
</svg>
