{
    "asset" : {
        "generator" : "Khronos glTF Blender I/O v1.3.48",
        "version" : "2.0"
    },
    "scene" : 0,
    "scenes" : [
        {
            "name" : "Scene",
            "nodes" : [
                0
            ]
        }
    ],
    "nodes" : [
        {
            "mesh" : 0,
            "name" : "modeloCiudadRelleno",
            "rotation" : [
                0.7071068286895752,
                0,
                0,
                0.7071067094802856
            ],
            "scale" : [
                1.496813178062439,
                1.496813178062439,
                0.41561248898506165
            ],
            "translation" : [
                -14.97337818145752,
                0,
                14.939061164855957
            ]
        }
    ],
    "materials" : [
        {
            "doubleSided" : true,
            "emissiveFactor" : [
                0,
                0,
                0
            ],
            "name" : "Material",
            "pbrMetallicRoughness" : {
                "baseColorFactor" : [
                    0.029095901176333427,
                    0.029095901176333427,
                    0.029095901176333427,
                    1
                ],
                "metallicFactor" : 0,
                "roughnessFactor" : 0.5
            }
        }
    ],
    "meshes" : [
        {
            "name" : "modeloCiudadRelleno",
            "primitives" : [
                {
                    "attributes" : {
                        "POSITION" : 0,
                        "NORMAL" : 1,
                        "TEXCOORD_0" : 2
                    },
                    "indices" : 3,
                    "material" : 0
                }
            ]
        }
    ],
    "accessors" : [
        {
            "bufferView" : 0,
            "componentType" : 5126,
            "count" : 12094,
            "max" : [
                17.22359848022461,
                -0.0657898411154747,
                0
            ],
            "min" : [
                0.13065610826015472,
                -19.868160247802734,
                -0.75
            ],
            "type" : "VEC3"
        },
        {
            "bufferView" : 1,
            "componentType" : 5126,
            "count" : 12094,
            "type" : "VEC3"
        },
        {
            "bufferView" : 2,
            "componentType" : 5126,
            "count" : 12094,
            "type" : "VEC2"
        },
        {
            "bufferView" : 3,
            "componentType" : 5123,
            "count" : 18696,
            "type" : "SCALAR"
        }
    ],
    "bufferViews" : [
        {
            "buffer" : 0,
            "byteLength" : 145128,
            "byteOffset" : 0
        },
        {
            "buffer" : 0,
            "byteLength" : 145128,
            "byteOffset" : 145128
        },
        {
            "buffer" : 0,
            "byteLength" : 96752,
            "byteOffset" : 290256
        },
        {
            "buffer" : 0,
            "byteLength" : 37392,
            "byteOffset" : 387008
        }
    ],
    "buffers" : [
        {
            "byteLength" : 424400,
            "uri" : "data:application/octet-stream;base64,"
        }
    ]
}
