{
    "asset" : {
        "generator" : "Khronos glTF Blender I/O v1.3.48",
        "version" : "2.0"
    },
    "scene" : 0,
    "scenes" : [
        {
            "name" : "Scene",
            "nodes" : [
                0
            ]
        }
    ],
    "nodes" : [
        {
            "mesh" : 0,
            "name" : "modeloCiudadRelleno.001",
            "rotation" : [
                0.7071068286895752,
                0,
                0,
                0.7071067094802856
            ],
            "scale" : [
                1.496813178062439,
                1.496813178062439,
                0.41561248898506165
            ],
            "translation" : [
                -14.97337818145752,
                0,
                14.939061164855957
            ]
        }
    ],
    "materials" : [
        {
            "doubleSided" : true,
            "emissiveFactor" : [
                0,
                0,
                0
            ],
            "name" : "Material.010",
            "pbrMetallicRoughness" : {
                "baseColorFactor" : [
                    0.4200873374938965,
                    0.4200873374938965,
                    0.4200873374938965,
                    1
                ],
                "metallicFactor" : 0,
                "roughnessFactor" : 0.5
            }
        }
    ],
    "meshes" : [
        {
            "name" : "modeloCiudadRelleno.001",
            "primitives" : [
                {
                    "attributes" : {
                        "POSITION" : 0,
                        "NORMAL" : 1,
                        "TEXCOORD_0" : 2
                    },
                    "indices" : 3,
                    "material" : 0
                }
            ]
        }
    ],
    "accessors" : [
        {
            "bufferView" : 0,
            "componentType" : 5126,
            "count" : 36286,
            "max" : [
                17.230772018432617,
                -0.05579045042395592,
                0.009999999776482582
            ],
            "min" : [
                0.12067106366157532,
                -19.877830505371094,
                -0.7599999904632568
            ],
            "type" : "VEC3"
        },
        {
            "bufferView" : 1,
            "componentType" : 5126,
            "count" : 36286,
            "type" : "VEC3"
        },
        {
            "bufferView" : 2,
            "componentType" : 5126,
            "count" : 36286,
            "type" : "VEC2"
        },
        {
            "bufferView" : 3,
            "componentType" : 5123,
            "count" : 145176,
            "type" : "SCALAR"
        }
    ],
    "bufferViews" : [
        {
            "buffer" : 0,
            "byteLength" : 435432,
            "byteOffset" : 0
        },
        {
            "buffer" : 0,
            "byteLength" : 435432,
            "byteOffset" : 435432
        },
        {
            "buffer" : 0,
            "byteLength" : 290288,
            "byteOffset" : 870864
        },
        {
            "buffer" : 0,
            "byteLength" : 290352,
            "byteOffset" : 1161152
        }
    ],
    "buffers" : [
        {
            "byteLength" : 1451504,
            "uri" : "data:application/octet-stream;base64,"
        }
    ]
}
