# Blender v2.90.0 OBJ File: ''
# www.blender.org
mtllib edificio1.mtl
o Plano
v -1.000000 0.000000 1.000000
v 1.000000 0.000000 1.000000
v -1.000000 0.000000 -1.000000
v 1.000000 0.000000 -1.000000
v 0.000000 0.000000 1.000000
v 0.000000 0.000000 -1.000000
v -1.000000 0.000000 0.000000
v 1.000000 0.000000 0.000000
v 0.000000 0.000000 0.000000
v -1.000000 0.034485 0.000000
v -1.000000 0.034485 1.000000
v 0.000000 0.034485 1.000000
v 1.000000 0.034485 1.000000
v 1.000000 0.034485 0.000000
v 1.000000 0.034485 -1.000000
v 0.000000 0.034485 -1.000000
v -1.000000 0.034485 -1.000000
v 0.000000 0.034485 0.000000
v -1.000000 1.079208 0.000000
v -1.000000 1.079208 1.000000
v 0.000000 1.079208 1.000000
v 0.000000 1.079208 0.000000
v 0.000000 1.513417 -1.000000
v -1.000000 1.513417 -1.000000
v 0.000000 1.513417 0.000000
v -1.000000 1.513417 0.000000
v 0.000000 0.561157 1.000000
v 1.000000 0.561157 1.000000
v 1.000000 0.561157 0.000000
v 1.000000 0.561157 -1.000000
v 0.000000 0.561157 -1.000000
v 0.000000 0.561157 0.000000
vt 0.181376 0.198227
vt 0.000000 0.198227
vt 0.000000 0.000000
vt 0.181376 0.000000
vt 0.181376 0.396454
vt 0.000000 0.396454
vt 0.362751 0.396454
vt 0.362751 0.198227
vt 0.362751 0.000000
vt 0.449618 0.396454
vt 0.449618 0.594681
vt 0.354092 0.594681
vt 0.354092 0.396454
vt 0.637249 0.982782
vt 0.455873 0.982782
vt 0.455873 0.689618
vt 0.637248 0.689618
vt 0.362752 1.000000
vt 0.181376 1.000000
vt 0.181376 0.792908
vt 0.362751 0.792908
vt 0.643503 0.198227
vt 0.643503 0.000000
vt 0.739029 0.000000
vt 0.739029 0.198227
vt 0.455873 0.594681
vt 0.455873 0.792908
vt 0.449618 0.792908
vt 0.274497 0.594681
vt 0.274497 0.792908
vt 0.268242 0.792908
vt 0.268242 0.594681
vt 0.274497 0.396454
vt 0.268242 0.396454
vt 0.637249 0.000000
vt 0.637249 0.198227
vt 0.630994 0.198227
vt 0.630994 0.000000
vt 0.637249 0.396454
vt 0.630994 0.396454
vt 0.637249 0.198227
vt 0.637249 0.000000
vt 0.455873 0.396454
vt 0.637249 0.396454
vt 0.643503 0.396454
vt 0.637249 0.991135
vt 0.637249 0.792908
vt 0.818624 0.792908
vt 0.818624 0.991135
vt 0.832991 0.198227
vt 0.832991 0.396454
vt 0.078755 0.792908
vt 0.078755 0.594681
vt 0.181376 1.000000
vt 0.000000 1.000000
vt 0.000000 0.792908
vt 0.181376 0.792908
vt 0.818624 0.792908
vt 1.000000 0.792908
vt 1.000000 0.991135
vt 0.818624 0.991135
vt 0.637249 0.689618
vt 0.455873 0.689618
vt 0.455873 0.396454
vt 0.637248 0.396454
vt 0.000000 0.594681
vt 0.000000 0.396454
vt 0.362751 0.396454
vt 0.362751 0.198227
vt 0.637249 0.594681
vt 0.818624 0.594681
vt 0.818624 0.792908
vt 0.637249 0.792908
vt 0.637249 0.396454
vt 0.818624 0.396454
vt 0.914150 0.396454
vt 0.914150 0.594681
vt 0.818624 0.594681
vt 0.818624 0.396454
vt 0.354093 0.792908
vt 0.914150 0.792908
vt 0.818624 0.792908
vt 0.535468 0.198227
vt 0.535468 0.000000
vn 0.0000 -1.0000 0.0000
vn 1.0000 0.0000 0.0000
vn 0.0000 0.0000 1.0000
vn 0.0000 0.0000 -1.0000
vn -1.0000 0.0000 0.0000
vn 0.0000 1.0000 0.0000
usemtl None
s off
f 9/1/1 6/2/1 4/3/1 8/4/1
f 7/5/1 3/6/1 6/2/1 9/1/1
f 1/7/1 7/5/1 9/1/1 5/8/1
f 5/8/1 9/1/1 8/4/1 2/9/1
f 13/10/2 14/11/2 29/12/2 28/13/2
f 10/14/3 18/15/3 25/16/3 26/17/3
f 18/18/4 10/19/4 19/20/4 22/21/4
f 12/22/3 13/23/3 28/24/3 27/25/3
f 8/26/2 4/27/2 15/28/2 14/11/2
f 7/29/5 1/30/5 11/31/5 10/32/5
f 3/33/5 7/29/5 10/32/5 17/34/5
f 4/35/4 6/36/4 16/37/4 15/38/4
f 6/36/4 3/39/4 17/40/4 16/37/4
f 5/41/3 2/42/3 13/23/3 12/22/3
f 2/43/2 8/26/2 14/11/2 13/10/2
f 1/44/3 5/41/3 12/22/3 11/45/3
f 20/46/6 21/47/6 22/48/6 19/49/6
f 11/45/3 12/22/3 21/50/3 20/51/3
f 10/32/5 11/31/5 20/52/5 19/53/5
f 12/54/2 18/55/2 22/56/2 21/57/2
f 26/58/6 25/59/6 23/60/6 24/61/6
f 18/62/2 16/63/2 23/64/2 25/65/2
f 17/34/5 10/32/5 26/66/5 24/67/5
f 16/37/4 17/40/4 24/68/4 23/69/4
f 32/70/6 29/71/6 30/72/6 31/73/6
f 27/74/6 28/75/6 29/71/6 32/70/6
f 16/76/5 18/77/5 32/78/5 31/79/5
f 14/11/2 15/28/2 30/80/2 29/12/2
f 18/77/5 12/81/5 27/82/5 32/78/5
f 15/38/4 16/37/4 31/83/4 30/84/4
