# Blender v2.90.0 OBJ File: ''
# www.blender.org
mtllib edificio2.mtl
o Plano
v -1.000000 0.000000 1.000000
v 1.000000 0.000000 1.000000
v -1.000000 0.000000 -1.000000
v 1.000000 0.000000 -1.000000
v 0.000000 0.000000 1.000000
v 0.000000 0.000000 -1.000000
v -1.000000 0.000000 0.000000
v 1.000000 0.000000 0.000000
v 0.000000 0.000000 0.000000
v -1.000000 0.034485 0.000000
v -1.000000 0.034485 1.000000
v 0.000000 0.034485 1.000000
v 1.000000 0.034485 1.000000
v 1.000000 0.034485 0.000000
v 1.000000 0.034485 -1.000000
v 0.000000 0.034485 -1.000000
v -1.000000 0.034485 -1.000000
v 0.000000 0.034485 0.000000
v -1.000000 1.823472 0.000000
v -1.000000 1.485741 1.000000
v 0.000000 1.485741 1.000000
v 0.000000 1.823472 0.000000
v 0.000000 1.041439 -1.000000
v -1.000000 1.041439 -1.000000
v 0.000000 1.513417 0.000000
v -1.000000 1.513417 0.000000
v 0.000000 0.561157 1.000000
v 1.000000 0.561157 1.000000
v 1.000000 1.216036 0.000000
v 1.000000 0.561157 -1.000000
v 0.000000 0.561157 -1.000000
v 0.000000 1.216036 0.000000
vt 0.174450 0.179277
vt 0.000000 0.179277
vt 0.000000 0.000000
vt 0.174450 0.000000
vt 0.174450 0.358553
vt 0.000000 0.358553
vt 0.348900 0.358553
vt 0.348900 0.179276
vt 0.348900 0.000000
vt 0.873128 0.358553
vt 0.873128 0.537830
vt 0.667006 0.537830
vt 0.781249 0.358553
vt 0.635334 0.982244
vt 0.460884 0.982244
vt 0.460884 0.717106
vt 0.635334 0.717106
vt 0.460884 1.000000
vt 0.286433 1.000000
vt 0.286433 0.679277
vt 0.460884 0.679277
vt 0.006016 0.537830
vt 0.006016 0.358553
vt 0.097894 0.358553
vt 0.097894 0.537830
vt 0.879143 0.537830
vt 0.879143 0.717106
vt 0.873128 0.717106
vt 0.667006 0.179277
vt 0.667006 0.358553
vt 0.660990 0.358553
vt 0.660990 0.179277
vt 0.667006 0.000000
vt 0.660990 0.000000
vt 0.879143 0.000000
vt 0.879143 0.179277
vt 0.873128 0.179277
vt 0.873128 0.000000
vt 0.879143 0.358553
vt 0.873128 0.358553
vt 0.000000 0.537830
vt 0.000000 0.358553
vt 0.879143 0.358553
vt 0.000000 0.717106
vt 0.006016 0.717106
vt 0.984235 0.904806
vt 0.809784 0.904806
vt 0.809784 0.717106
vt 0.984235 0.717106
vt 0.259188 0.537830
vt 0.259188 0.717106
vt 0.407818 0.358553
vt 0.348900 0.179277
vt 0.460884 0.679276
vt 0.286433 0.679277
vt 0.286433 0.358553
vt 0.460884 0.419100
vt 0.879143 0.179277
vt 0.879143 0.000000
vt 1.000000 0.000000
vt 1.000000 0.179277
vt 0.174450 0.982244
vt 0.000000 0.982244
vt 0.000000 0.801721
vt 0.174450 0.717106
vt 0.402990 0.179277
vt 0.485326 0.000000
vt 0.697464 0.358553
vt 0.697464 0.179277
vt 0.667006 0.179277
vt 0.667006 0.000000
vt 0.781249 0.000000
vt 0.781249 0.179277
vt 0.809784 0.929678
vt 0.635334 0.929678
vt 0.635334 0.717106
vt 0.809784 0.717106
vt 0.667006 0.358553
vt 0.667006 0.537830
vt 0.460884 0.537830
vt 0.575127 0.358553
vt 0.781249 0.717106
vt 0.667006 0.717106
vt 0.575127 0.717106
vn 0.0000 -1.0000 0.0000
vn 1.0000 0.0000 0.0000
vn 0.0000 0.0000 1.0000
vn 0.0000 0.0000 -1.0000
vn -1.0000 0.0000 0.0000
vn 0.0000 0.9474 0.3200
vn 0.0000 0.9043 -0.4268
vn 0.0000 0.8366 -0.5479
vn 0.0000 0.8366 0.5479
usemtl None
s off
f 9/1/1 6/2/1 4/3/1 8/4/1
f 7/5/1 3/6/1 6/2/1 9/1/1
f 1/7/1 7/5/1 9/1/1 5/8/1
f 5/8/1 9/1/1 8/4/1 2/9/1
f 13/10/2 14/11/2 29/12/2 28/13/2
f 10/14/3 18/15/3 25/16/3 26/17/3
f 18/18/4 10/19/4 19/20/4 22/21/4
f 12/22/3 13/23/3 28/24/3 27/25/3
f 8/26/2 4/27/2 15/28/2 14/11/2
f 7/29/5 1/30/5 11/31/5 10/32/5
f 3/33/5 7/29/5 10/32/5 17/34/5
f 4/35/4 6/36/4 16/37/4 15/38/4
f 6/36/4 3/39/4 17/40/4 16/37/4
f 5/41/3 2/42/3 13/23/3 12/22/3
f 2/43/2 8/26/2 14/11/2 13/10/2
f 1/44/3 5/41/3 12/22/3 11/45/3
f 20/46/6 21/47/6 22/48/6 19/49/6
f 11/45/3 12/22/3 21/50/3 20/51/3
f 10/32/5 11/31/5 20/52/5 19/53/5
f 12/54/2 18/55/2 22/56/2 21/57/2
f 26/58/7 25/59/7 23/60/7 24/61/7
f 18/62/2 16/63/2 23/64/2 25/65/2
f 17/34/5 10/32/5 26/66/5 24/67/5
f 16/37/4 17/40/4 24/68/4 23/69/4
f 32/70/8 29/71/8 30/72/8 31/73/8
f 27/74/9 28/75/9 29/76/9 32/77/9
f 16/78/5 18/79/5 32/80/5 31/81/5
f 14/11/2 15/28/2 30/82/2 29/12/2
f 18/79/5 12/83/5 27/84/5 32/80/5
f 15/38/4 16/37/4 31/73/4 30/72/4
