{
    "asset" : {
        "generator" : "Khronos glTF Blender I/O v1.3.48",
        "version" : "2.0"
    },
    "scene" : 0,
    "scenes" : [
        {
            "name" : "Scene",
            "nodes" : [
                0
            ]
        }
    ],
    "nodes" : [
        {
            "mesh" : 0,
            "name" : "MALBA",
            "rotation" : [
                0,
                -0.9898906946182251,
                0,
                0.1418323665857315
            ],
            "scale" : [
                0.11759775131940842,
                0.08091498911380768,
                0.2223406881093979
            ],
            "translation" : [
                5.284304618835449,
                0.12251538038253784,
                -3.497196674346924
            ]
        }
    ],
    "materials" : [
        {
            "doubleSided" : true,
            "emissiveFactor" : [
                0,
                0,
                0
            ],
            "name" : "Imagen 1",
            "pbrMetallicRoughness" : {
                "baseColorTexture" : {
                    "index" : 0,
                    "texCoord" : 0
                },
                "metallicFactor" : 0,
                "roughnessFactor" : 0.5
            }
        }
    ],
    "meshes" : [
        {
            "name" : "Cubo.013",
            "primitives" : [
                {
                    "attributes" : {
                        "POSITION" : 0,
                        "NORMAL" : 1,
                        "TEXCOORD_0" : 2
                    },
                    "indices" : 3,
                    "material" : 0
                }
            ]
        }
    ],
    "textures" : [
        {
            "source" : 0
        }
    ],
    "images" : [
        {
            "bufferView" : 4,
            "mimeType" : "image/jpeg",
            "name" : "imagen 1"
        }
    ],
    "accessors" : [
        {
            "bufferView" : 0,
            "componentType" : 5126,
            "count" : 88,
            "max" : [
                1,
                4.307958602905273,
                2.0088467597961426
            ],
            "min" : [
                -9.365924835205078,
                -1.5243889093399048,
                -1.7167551517486572
            ],
            "type" : "VEC3"
        },
        {
            "bufferView" : 1,
            "componentType" : 5126,
            "count" : 88,
            "type" : "VEC3"
        },
        {
            "bufferView" : 2,
            "componentType" : 5126,
            "count" : 88,
            "type" : "VEC2"
        },
        {
            "bufferView" : 3,
            "componentType" : 5123,
            "count" : 144,
            "type" : "SCALAR"
        }
    ],
    "bufferViews" : [
        {
            "buffer" : 0,
            "byteLength" : 1056,
            "byteOffset" : 0
        },
        {
            "buffer" : 0,
            "byteLength" : 1056,
            "byteOffset" : 1056
        },
        {
            "buffer" : 0,
            "byteLength" : 704,
            "byteOffset" : 2112
        },
        {
            "buffer" : 0,
            "byteLength" : 288,
            "byteOffset" : 2816
        },
        {
            "buffer" : 0,
            "byteLength" : 127614,
            "byteOffset" : 3104
        }
    ],
    "buffers" : [
        {
            "byteLength" : 130720,
            "uri" : "data:application/octet-stream;base64,"
        }
    ]
}
