{
    "asset" : {
        "generator" : "Khronos glTF Blender I/O v1.3.48",
        "version" : "2.0"
    },
    "scene" : 0,
    "scenes" : [
        {
            "name" : "Scene",
            "nodes" : [
                0
            ]
        }
    ],
    "nodes" : [
        {
            "mesh" : 0,
            "name" : "MUNTREF",
            "rotation" : [
                0,
                -0.7071068286895752,
                0,
                0.7071068286895752
            ],
            "scale" : [
                0.7822879552841187,
                0.24690909683704376,
                0.24690909683704376
            ],
            "translation" : [
                5.715086460113525,
                0.23795947432518005,
                3.7578091621398926
            ]
        }
    ],
    "materials" : [
        {
            "doubleSided" : true,
            "emissiveFactor" : [
                0,
                0,
                0
            ],
            "name" : "Imagen 12",
            "pbrMetallicRoughness" : {
                "baseColorTexture" : {
                    "index" : 0,
                    "texCoord" : 0
                },
                "metallicFactor" : 0,
                "roughnessFactor" : 0.5
            }
        }
    ],
    "meshes" : [
        {
            "name" : "Cubo.005",
            "primitives" : [
                {
                    "attributes" : {
                        "POSITION" : 0,
                        "NORMAL" : 1,
                        "TEXCOORD_0" : 2
                    },
                    "indices" : 3,
                    "material" : 0
                }
            ]
        }
    ],
    "textures" : [
        {
            "source" : 0
        }
    ],
    "images" : [
        {
            "bufferView" : 4,
            "mimeType" : "image/jpeg",
            "name" : "imagen 12"
        }
    ],
    "accessors" : [
        {
            "bufferView" : 0,
            "componentType" : 5126,
            "count" : 93,
            "max" : [
                1,
                1.4603545665740967,
                1
            ],
            "min" : [
                -1,
                -1,
                -1
            ],
            "type" : "VEC3"
        },
        {
            "bufferView" : 1,
            "componentType" : 5126,
            "count" : 93,
            "type" : "VEC3"
        },
        {
            "bufferView" : 2,
            "componentType" : 5126,
            "count" : 93,
            "type" : "VEC2"
        },
        {
            "bufferView" : 3,
            "componentType" : 5123,
            "count" : 204,
            "type" : "SCALAR"
        }
    ],
    "bufferViews" : [
        {
            "buffer" : 0,
            "byteLength" : 1116,
            "byteOffset" : 0
        },
        {
            "buffer" : 0,
            "byteLength" : 1116,
            "byteOffset" : 1116
        },
        {
            "buffer" : 0,
            "byteLength" : 744,
            "byteOffset" : 2232
        },
        {
            "buffer" : 0,
            "byteLength" : 408,
            "byteOffset" : 2976
        },
        {
            "buffer" : 0,
            "byteLength" : 107726,
            "byteOffset" : 3384
        }
    ],
    "buffers" : [
        {
            "byteLength" : 111112,
            "uri" : "data:application/octet-stream;base64,"
        }
    ]
}
