<svg width="63" height="32" viewBox="0 0 63 32" fill="none" xmlns="http://www.w3.org/2000/svg">
<path d="M8.7402 2.8788C8.10737 2.8788 7.64113 2.38097 7.64113 1.7491C7.63663 1.60099 7.66202 1.45348 7.71579 1.3154C7.76955 1.17732 7.85059 1.05148 7.95407 0.945415C8.05755 0.839347 8.18134 0.755217 8.31805 0.698052C8.45476 0.640887 8.60159 0.611858 8.74977 0.612699C8.90847 0.607921 9.06642 0.636369 9.21349 0.696216C9.36055 0.756063 9.49348 0.845989 9.60375 0.960225L9.43525 1.14213C9.34687 1.04773 9.24015 0.972378 9.12162 0.920686C9.00309 0.868994 8.87525 0.842051 8.74594 0.841511C8.26151 0.841511 7.89771 1.23212 7.89771 1.7424C7.89771 2.25268 8.26438 2.65095 8.74594 2.65095C9.04656 2.65095 9.24378 2.5351 9.45344 2.33406L9.61619 2.49394C9.50682 2.61777 9.37182 2.71633 9.22056 2.78279C9.06929 2.84924 8.90539 2.88201 8.7402 2.8788Z" fill="white"/>
<path d="M11.896 2.87872C11.6714 2.88118 11.4511 2.81687 11.2632 2.69396C11.0752 2.57104 10.928 2.39505 10.8402 2.18832C10.7524 1.98159 10.728 1.75345 10.7701 1.53283C10.8122 1.31221 10.9189 1.10907 11.0766 0.949186C11.2343 0.789299 11.436 0.679872 11.656 0.634792C11.876 0.589713 12.1045 0.611013 12.3124 0.695988C12.5203 0.780963 12.6983 0.925783 12.8237 1.11207C12.9492 1.29836 13.0165 1.51772 13.0171 1.74231C13.0204 1.89117 12.9938 2.03918 12.9388 2.17756C12.8839 2.31594 12.8017 2.44186 12.6971 2.54785C12.5925 2.65385 12.4677 2.73776 12.3301 2.79459C12.1925 2.85143 12.0449 2.88004 11.896 2.87872ZM11.896 0.841426C11.3953 0.841426 11.0343 1.24161 11.0343 1.74231C11.0343 2.24302 11.3972 2.65086 11.896 2.65086C12.3948 2.65086 12.7576 2.24972 12.7576 1.74902C12.7576 1.24831 12.3967 0.841426 11.896 0.841426Z" fill="white"/>
<path d="M14.4316 0.649994H14.6786V2.61261H15.9117V2.84142H14.4316V0.649994Z" fill="white"/>
<path d="M18.5942 0.875934H17.2539V1.62747H18.4506V1.85341H17.2539V2.61931H18.6095V2.84429H17.0098V0.649994H18.5942V0.875934Z" fill="white"/>
<path d="M21.001 2.87883C20.3691 2.87883 19.9029 2.38099 19.9029 1.74913C19.8984 1.6011 19.9237 1.45367 19.9774 1.31565C20.0311 1.17763 20.1121 1.05184 20.2155 0.945788C20.3188 0.839733 20.4425 0.755585 20.5791 0.698363C20.7157 0.64114 20.8624 0.612016 21.0105 0.612727C21.1694 0.607814 21.3275 0.636197 21.4748 0.696049C21.622 0.7559 21.7551 0.845896 21.8655 0.960254L21.696 1.14215C21.6078 1.04779 21.5013 0.972442 21.3829 0.920747C21.2645 0.869052 21.1368 0.842098 21.0077 0.841539C20.5223 0.841539 20.1594 1.23215 20.1594 1.74243C20.1594 2.25271 20.5251 2.65097 21.0077 2.65097C21.3083 2.65097 21.5055 2.53513 21.7152 2.33408L21.8779 2.49396C21.7684 2.61782 21.6332 2.71639 21.4818 2.78284C21.3303 2.84929 21.1663 2.88205 21.001 2.87883Z" fill="white"/>
<path d="M24.1416 2.8788C23.5097 2.8788 23.0435 2.38097 23.0435 1.7491C23.039 1.60107 23.0643 1.45365 23.118 1.31563C23.1718 1.17761 23.2527 1.05182 23.3561 0.945763C23.4595 0.839708 23.5831 0.75556 23.7197 0.698338C23.8563 0.641115 24.0031 0.611991 24.1512 0.612702C24.31 0.607908 24.4681 0.636344 24.6153 0.696189C24.7625 0.756033 24.8956 0.845967 25.0061 0.960229L24.8366 1.14213C24.7484 1.04785 24.6418 0.972566 24.5234 0.920878C24.4051 0.86919 24.2774 0.842185 24.1483 0.841514C23.6629 0.841514 23.3001 1.23212 23.3001 1.7424C23.3001 2.25268 23.6658 2.65095 24.1483 2.65095C24.4489 2.65095 24.6461 2.53511 24.8558 2.33406L25.0185 2.49394C24.909 2.6178 24.7738 2.71636 24.6224 2.78281C24.471 2.84927 24.3069 2.88202 24.1416 2.8788Z" fill="white"/>
<path d="M26.6103 0.649994V2.84142H26.3633V0.649994H26.6103Z" fill="white"/>
<path d="M29.1636 2.87882C28.939 2.88128 28.7187 2.81698 28.5307 2.69406C28.3428 2.57114 28.1955 2.39515 28.1078 2.18842C28.02 1.9817 27.9956 1.75355 28.0377 1.53293C28.0798 1.31232 28.1864 1.10918 28.3442 0.94929C28.5019 0.789403 28.7036 0.679976 28.9236 0.634896C29.1436 0.589817 29.3721 0.611117 29.58 0.696092C29.7879 0.781067 29.9658 0.925887 30.0913 1.11218C30.2168 1.29846 30.284 1.51782 30.2846 1.74242C30.2895 1.89166 30.2639 2.04033 30.2095 2.17937C30.155 2.31842 30.0729 2.44494 29.968 2.55124C29.8631 2.65754 29.7377 2.7414 29.5994 2.79772C29.4611 2.85403 29.3128 2.88162 29.1636 2.87882ZM29.1636 0.84153C28.6628 0.84153 28.3019 1.24171 28.3019 1.74242C28.3019 2.24312 28.6657 2.65096 29.1636 2.65096C29.6614 2.65096 30.0252 2.24983 30.0252 1.74912C30.0252 1.24841 29.6681 0.84153 29.1636 0.84153ZM29.086 0.458581L29.3809 0L29.6317 0.115843L29.2775 0.453795L29.086 0.458581Z" fill="white"/>
<path d="M33.3114 0.649994H33.5527V2.84142H33.3555L31.9405 1.04443V2.84142H31.6992V0.649994H31.9309L33.3114 2.40677V0.649994Z" fill="white"/>
<path d="M38.9377 2.84157H38.6678L38.4112 2.26236H37.2221L36.9627 2.84157H36.709L37.7104 0.634827H37.9421L38.9377 2.84157ZM37.8205 0.926824L37.3198 2.04408H38.3183L37.8205 0.926824Z" fill="white"/>
<path d="M41.1889 2.24019H41.1755L40.378 1.06932V2.84142H40.1367V0.649994H40.3904L41.1889 1.84575L41.9873 0.649994H42.2382V2.84142H41.9902V1.06645L41.1889 2.24019Z" fill="white"/>
<path d="M45.6604 2.84157H45.3952L45.1377 2.26236H43.9457L43.6853 2.84157H43.4316L44.4302 0.634827H44.6619L45.6604 2.84157ZM44.5431 0.926824L44.0424 2.04408H45.041L44.5431 0.926824Z" fill="white"/>
<path d="M46.8594 0.649994H47.1064V2.61261H48.3404V2.84142H46.8594V0.649994Z" fill="white"/>
<path d="M49.58 0.649994V2.84142H49.332V0.649994H49.58Z" fill="white"/>
<path d="M51.7595 2.84142H51.5097V0.878806H50.7734V0.649994H52.4967V0.878806H51.7605L51.7595 2.84142Z" fill="white"/>
<path d="M55.3596 2.84157H55.0935L54.8369 2.26236H53.644L53.3846 2.84157H53.1309L54.1294 0.634827H54.3611L55.3596 2.84157ZM54.2424 0.926824L53.7407 2.04408H54.7402L54.2424 0.926824Z" fill="white"/>
<path d="M25.4691 4.14929H24.2054L21.7038 10.7887L19.1792 4.14929H17.9815L15.3066 12.376H16.7044L18.6287 5.76247L21.048 12.376H21.094H22.3558L24.8038 5.72608L26.8353 12.376H28.1431L25.4691 4.14929Z" fill="white"/>
<path d="M36.6777 12.376V4.14929H37.8697V11.2425H42.0984V12.376H36.6777Z" fill="white"/>
<path d="M40.8887 9.96724V4.14929H42.0806V9.96724H40.8887Z" fill="white"/>
<path d="M13.8643 12.376H15.172L11.9543 4.14929H10.7968L7.58008 12.376H8.88785L11.3761 5.69928L13.8643 12.376Z" fill="white"/>
<path d="M34.5635 12.376H35.8703L32.6535 4.14929H31.4961L28.2793 12.376H29.5871L32.0753 5.69928L34.5635 12.376Z" fill="white"/>
<path d="M54.0772 12.376H55.3849L52.1672 4.14929H51.0097L47.793 12.376H49.1007L51.5889 5.69928L54.0772 12.376Z" fill="white"/>
<path d="M45.3388 12.376V5.25984H43.0957V4.14929H48.7739V5.25984H46.5308V12.376H45.3388Z" fill="white"/>
<path d="M18.6228 18.9713L16.7081 12.376H21.0507L18.6228 18.9713ZM34.564 12.376H29.5857L32.0672 19.0345L34.564 12.376ZM26.8371 12.376H22.3566L24.8103 19.0077L26.8371 12.376ZM54.0772 12.376H49.1017L51.5909 19.0345L54.0772 12.376ZM62.9645 12.376V31.0783H0V12.376H7.58048L10.7972 20.5835H11.9557L15.1734 12.375H15.3065L17.9766 20.5835H19.1733L21.7046 13.9442L24.21 20.5835H25.4738L28.142 12.375H28.2779L31.4861 20.5835H32.6426L35.867 12.375H36.6741V20.5835H37.866V13.4913H42.0947V12.376H45.3392V19.4739H43.0961V20.5835H48.7743V19.473H46.5312V12.376H47.793L51.0098 20.5835H52.1653L55.3821 12.375L62.9645 12.376ZM42.0803 14.7694H40.8884V20.5835H42.0803V14.7694ZM13.8647 12.376H8.89208L11.3812 19.0345L13.8647 12.376Z" fill="white"/>
<path d="M7.86511 23.3914C7.6631 23.3914 7.56641 23.2957 7.56641 23.0927V22.1956C7.56641 21.9936 7.66214 21.8969 7.86511 21.8969H8.33326C8.53527 21.8969 8.63196 21.9927 8.63196 22.1956V22.3871H8.42708V22.2033C8.42708 22.1181 8.39453 22.0865 8.30933 22.0865H7.88904C7.80383 22.0865 7.77128 22.1181 7.77128 22.2033V23.087C7.77128 23.1722 7.80383 23.2047 7.88904 23.2047H8.30933C8.39453 23.2047 8.42708 23.1722 8.42708 23.087V22.9031H8.63196V23.0946C8.63196 23.2976 8.53622 23.3933 8.33326 23.3933L7.86511 23.3914Z" fill="white"/>
<path d="M9.55275 22.2388C9.74422 22.2388 9.83996 22.3346 9.83996 22.526V23.1062C9.83996 23.2977 9.74422 23.3934 9.55275 23.3934H9.20713C9.01566 23.3934 8.91992 23.2977 8.91992 23.1062V22.526C8.91992 22.3346 9.01566 22.2388 9.20713 22.2388H9.55275ZM9.64848 22.526C9.64848 22.4447 9.61402 22.4112 9.53264 22.4112H9.23394C9.15065 22.4112 9.11906 22.4447 9.11906 22.526V23.1005C9.11906 23.1818 9.15065 23.2153 9.23394 23.2153H9.53264C9.61402 23.2153 9.64848 23.1818 9.64848 23.1005V22.526Z" fill="white"/>
<path d="M10.6099 23.3916H10.0527V23.2355H10.2385V21.9909H10.0527V21.8349H10.4357V23.2355H10.6128L10.6099 23.3916Z" fill="white"/>
<path d="M11.0136 23.112C11.0136 23.1934 11.0481 23.2269 11.1295 23.2269H11.4167C11.5 23.2269 11.5325 23.1934 11.5325 23.112V23.0268H11.724V23.1053C11.724 23.2968 11.6283 23.3925 11.4368 23.3925H11.1036C10.9121 23.3925 10.8164 23.2968 10.8164 23.1053V22.5251C10.8164 22.3337 10.9074 22.2379 11.1036 22.2379H11.4368C11.6283 22.2379 11.724 22.3337 11.724 22.5251V22.8621H11.0127L11.0136 23.112ZM11.1295 22.4035C11.0481 22.4035 11.0136 22.437 11.0136 22.5184V22.7166H11.5306V22.5184C11.5306 22.437 11.4981 22.4035 11.4148 22.4035H11.1295Z" fill="white"/>
<path d="M12.5992 22.2389C12.7906 22.2389 12.8864 22.3346 12.8864 22.5261V22.6266H12.6949V22.5309C12.6949 22.4495 12.6623 22.416 12.5791 22.416H12.3081C12.2267 22.416 12.1932 22.4495 12.1932 22.5309V23.1053C12.1932 23.1867 12.2267 23.2202 12.3081 23.2202H12.5791C12.6623 23.2202 12.6949 23.1867 12.6949 23.1053V23.0096H12.8864V23.1053C12.8864 23.2968 12.7906 23.3925 12.5992 23.3925H12.2794C12.0879 23.3925 11.9922 23.2968 11.9922 23.1053V22.5251C11.9922 22.3337 12.0879 22.2379 12.2794 22.2379L12.5992 22.2389Z" fill="white"/>
<path d="M13.7535 22.2389C13.9449 22.2389 14.0407 22.3346 14.0407 22.5261V22.6266H13.8492V22.5309C13.8492 22.4495 13.8176 22.416 13.7343 22.416H13.4634C13.382 22.416 13.3475 22.4495 13.3475 22.5309V23.1053C13.3475 23.1867 13.382 23.2202 13.4634 23.2202H13.7343C13.8176 23.2202 13.8492 23.1867 13.8492 23.1053V23.0096H14.0407V23.1053C14.0407 23.2968 13.9449 23.3925 13.7535 23.3925H13.4337C13.2422 23.3925 13.1465 23.2968 13.1465 23.1053V22.5251C13.1465 22.3337 13.2422 22.2379 13.4337 22.2379L13.7535 22.2389Z" fill="white"/>
<path d="M14.7994 23.3913H14.2422V23.2353H14.4279V22.3947H14.2422V22.2387H14.6251V23.2353H14.8022L14.7994 23.3913ZM14.4164 22.0788V21.8605H14.6357V22.0788H14.4164Z" fill="white"/>
<path d="M15.6426 22.2388C15.8341 22.2388 15.9298 22.3345 15.9298 22.526V23.1062C15.9298 23.2977 15.8341 23.3934 15.6426 23.3934H15.297C15.1055 23.3934 15.0098 23.2977 15.0098 23.1062V22.526C15.0098 22.3345 15.1055 22.2388 15.297 22.2388H15.6426ZM15.7383 22.526C15.7383 22.4446 15.7039 22.4111 15.6225 22.4111H15.3238C15.2405 22.4111 15.2089 22.4446 15.2089 22.526V23.1004C15.2089 23.1818 15.2405 23.2153 15.3238 23.2153H15.6225C15.7039 23.2153 15.7383 23.1818 15.7383 23.1004V22.526ZM15.3372 22.0971L15.5287 21.7898H15.7824L15.4952 22.0971H15.3372Z" fill="white"/>
<path d="M17.3975 23.3915H16.8662V23.2354H17.0309V22.5231C17.0309 22.437 16.9974 22.4054 16.8815 22.4054C16.7481 22.3993 16.6168 22.44 16.5101 22.5203V23.2354H16.6795V23.3915H16.1348V23.2354H16.3167V22.3949H16.1348V22.2388H16.5101V22.4025C16.5579 22.3455 16.6183 22.3004 16.6866 22.2708C16.755 22.2412 16.8292 22.228 16.9035 22.2321C17.1333 22.2321 17.2252 22.3278 17.2252 22.5193V23.2383H17.3966L17.3975 23.3915Z" fill="white"/>
<path d="M19.3264 23.3915H18.9597V23.2288C18.9104 23.2873 18.8479 23.3334 18.7773 23.3632C18.7068 23.393 18.6302 23.4056 18.5538 23.4001C18.3087 23.4001 18.2168 23.3044 18.2168 23.1072V22.5232C18.2168 22.3221 18.3125 22.2302 18.5538 22.2302C18.6301 22.2248 18.7066 22.2374 18.7771 22.267C18.8476 22.2966 18.9102 22.3424 18.9597 22.4006V21.989H18.7501V21.8329H19.1541V23.2355H19.3264V23.3915ZM18.9597 22.5232C18.8498 22.4405 18.7141 22.3995 18.5768 22.4073C18.4437 22.4073 18.4121 22.4399 18.4121 22.5232V23.1072C18.4121 23.1905 18.4437 23.223 18.5768 23.223C18.7141 23.2309 18.8498 23.1898 18.9597 23.1072V22.5232Z" fill="white"/>
<path d="M19.7177 23.112C19.7177 23.1934 19.7522 23.2269 19.8326 23.2269H20.1198C20.2031 23.2269 20.2347 23.1934 20.2347 23.112V23.0268H20.4262V23.1053C20.4262 23.2968 20.3304 23.3925 20.139 23.3925H19.8067C19.6153 23.3925 19.5195 23.2968 19.5195 23.1053V22.5251C19.5195 22.3337 19.6153 22.2379 19.8067 22.2379H20.1399C20.3314 22.2379 20.4271 22.3337 20.4271 22.5251V22.8621H19.7167L19.7177 23.112ZM19.8326 22.4035C19.7522 22.4035 19.7177 22.437 19.7177 22.5184V22.7166H20.2337V22.5184C20.2337 22.437 20.2021 22.4035 20.1188 22.4035H19.8326Z" fill="white"/>
<path d="M22.7449 23.3916H22.158V23.2183H22.3495L22.2538 22.9493H21.6602L21.5645 23.2183H21.7502V23.3916H21.1758V23.2183H21.3596L21.7713 22.0694H21.5961V21.8961H22.0872L22.5611 23.2173H22.7449V23.3916ZM21.957 22.0915L21.7215 22.7702H22.1906L21.957 22.0915Z" fill="white"/>
<path d="M23.6756 22.4245H23.601C23.4799 22.4277 23.3625 22.467 23.264 22.5374V23.2354H23.488V23.3914H22.8887V23.2354H23.0696V22.3967H22.8887V22.2407H23.264V22.4111C23.3072 22.3588 23.3613 22.3166 23.4224 22.2872C23.4836 22.2577 23.5504 22.2419 23.6182 22.2407H23.6756V22.4245Z" fill="white"/>
<path d="M24.1977 23.1071C24.1977 23.1885 24.2312 23.2229 24.3126 23.2229H24.4725V23.3914H24.2887C24.0972 23.3914 24.0014 23.2957 24.0014 23.1042V22.4025H23.8301V22.2378H24.0034V21.9602H24.1948V22.2378H24.4696V22.4025H24.1948L24.1977 23.1071Z" fill="white"/>
<path d="M24.9013 23.112C24.9013 23.1934 24.9358 23.2269 25.0171 23.2269H25.3044C25.3876 23.2269 25.4192 23.1934 25.4192 23.112V23.0268H25.6107V23.1053C25.6107 23.2968 25.515 23.3925 25.3235 23.3925H24.9903C24.7989 23.3925 24.7031 23.2968 24.7031 23.1053V22.5251C24.7031 22.3337 24.7989 22.2379 24.9903 22.2379H25.3235C25.515 22.2379 25.6107 22.3337 25.6107 22.5251V22.8621H24.8994L24.9013 23.112ZM25.0171 22.4035C24.9358 22.4035 24.9013 22.437 24.9013 22.5184V22.7166H25.4183V22.5184C25.4183 22.437 25.3867 22.4035 25.3034 22.4035H25.0171Z" fill="white"/>
<path d="M27.9285 23.3916H27.3416V23.2183H27.5331L27.4374 22.9493H26.8438L26.7481 23.2183H26.9338V23.3916H26.3594V23.2183H26.5422L26.9549 22.0694H26.7797V21.8961H27.2727L27.7466 23.2173H27.9295L27.9285 23.3916ZM27.1415 22.0915L26.906 22.7702H27.3761L27.1415 22.0915Z" fill="white"/>
<path d="M29.9813 23.3915H29.4499V23.2355H29.6165V22.5203C29.6165 22.4351 29.582 22.4035 29.4844 22.4035C29.3571 22.4009 29.2325 22.4406 29.1302 22.5165V23.2355H29.2939V23.3915H28.7731V23.2355H28.9358V22.5203C28.9358 22.4351 28.9014 22.4035 28.8037 22.4035C28.6759 22.4 28.5508 22.4406 28.4495 22.5184V23.2355H28.6141V23.3915H28.0723V23.2355H28.2542V22.3949H28.0723V22.2389H28.4485V22.3968C28.4938 22.3416 28.5512 22.2975 28.6163 22.2679C28.6814 22.2384 28.7524 22.2242 28.8238 22.2264C28.9942 22.2264 29.0861 22.2839 29.1187 22.4074C29.1648 22.3504 29.2232 22.3045 29.2895 22.2732C29.3558 22.2419 29.4283 22.2259 29.5016 22.2264C29.7151 22.2264 29.807 22.3222 29.807 22.5136V23.2345H29.9774L29.9813 23.3915Z" fill="white"/>
<path d="M31.2458 23.3915H30.8811V23.2269C30.8358 23.2871 30.7756 23.3346 30.7065 23.3646C30.6373 23.3947 30.5616 23.4063 30.4866 23.3982C30.2521 23.3982 30.1602 23.3025 30.1602 23.0603C30.1602 22.8181 30.2607 22.7492 30.4522 22.7281C30.5546 22.7166 30.7087 22.7022 30.8811 22.6955V22.5203C30.8811 22.437 30.8495 22.4055 30.7662 22.4055H30.5077C30.4244 22.4055 30.3928 22.437 30.3928 22.5203V22.5634H30.2013V22.5251C30.2013 22.3337 30.2971 22.2379 30.4885 22.2379H30.7939C30.9854 22.2379 31.0811 22.3337 31.0811 22.5251V23.2355H31.2516L31.2458 23.3915ZM30.4799 22.8774C30.3899 22.8899 30.3564 22.9129 30.3564 23.0498C30.3564 23.1867 30.388 23.2269 30.5096 23.2269C30.6442 23.232 30.7764 23.1897 30.883 23.1072V22.82L30.4799 22.8774Z" fill="white"/>
<path d="M31.981 23.3916H31.4238V23.2355H31.6096V21.9909H31.4238V21.8349H31.8068V23.2355H31.9839L31.981 23.3916Z" fill="white"/>
<path d="M32.7252 23.3913H32.168V23.2353H32.3537V22.3947H32.168V22.2387H32.5509V23.2353H32.728L32.7252 23.3913ZM32.3422 22.0788V21.8605H32.5576V22.0788H32.3422Z" fill="white"/>
<path d="M33.9987 23.3915H33.634V23.2269C33.5886 23.2871 33.5284 23.3345 33.4593 23.3645C33.3902 23.3945 33.3145 23.4062 33.2395 23.3982C33.004 23.3982 32.9121 23.3025 32.9121 23.0603C32.9121 22.8181 33.0126 22.7492 33.2051 22.7281C33.3075 22.7166 33.4607 22.7022 33.634 22.6955V22.5203C33.634 22.437 33.6024 22.4055 33.5191 22.4055H33.2606C33.1773 22.4055 33.1448 22.437 33.1448 22.5203V22.5634H32.9533V22.5251C32.9533 22.3337 33.0442 22.2379 33.2405 22.2379H33.5459C33.7374 22.2379 33.8331 22.3337 33.8331 22.5251V23.2355H34.0035L33.9987 23.3915ZM33.228 22.8813C33.139 22.8937 33.1045 22.9167 33.1045 23.0536C33.1045 23.1905 33.1371 23.2307 33.2587 23.2307C33.3933 23.2358 33.5255 23.1935 33.6321 23.111V22.8238L33.228 22.8813Z" fill="white"/>
<path d="M34.7832 23.3916V23.2183H34.9881V22.0694H34.7832V21.8961H35.4361V22.0694H35.193V23.2087H35.7454V22.91H35.9368V23.3887L34.7832 23.3916Z" fill="white"/>
<path d="M37.239 23.3915H36.8742V23.2269C36.8288 23.2871 36.7687 23.3345 36.6995 23.3645C36.6304 23.3945 36.5547 23.4062 36.4798 23.3982C36.2443 23.3982 36.1523 23.3025 36.1523 23.0603C36.1523 22.8181 36.2481 22.7492 36.4453 22.7281C36.5477 22.7166 36.7009 22.7022 36.8742 22.6955V22.5203C36.8742 22.437 36.8417 22.4055 36.7584 22.4055H36.5008C36.4175 22.4055 36.385 22.437 36.385 22.5203V22.5634H36.1935V22.5251C36.1935 22.3337 36.2892 22.2379 36.4807 22.2379H36.7861C36.9776 22.2379 37.0733 22.3337 37.0733 22.5251V23.2355H37.2438L37.239 23.3915ZM36.4654 22.8813C36.3764 22.8937 36.3419 22.9167 36.3419 23.0536C36.3419 23.1905 36.3735 23.2307 36.4951 23.2307C36.6301 23.2361 36.7626 23.1937 36.8694 23.111V22.8238L36.4654 22.8813Z" fill="white"/>
<path d="M38.0445 22.2389C38.2359 22.2389 38.3317 22.3346 38.3317 22.5261V22.6266H38.1354V22.5309C38.1354 22.4495 38.1029 22.416 38.0196 22.416H37.7486C37.6673 22.416 37.6338 22.4495 37.6338 22.5309V23.1053C37.6338 23.1867 37.6673 23.2202 37.7486 23.2202H38.0196C38.1029 23.2202 38.1354 23.1867 38.1354 23.1053V23.0096H38.3317V23.1053C38.3317 23.2968 38.2359 23.3925 38.0445 23.3925H37.7247C37.5332 23.3925 37.4375 23.2968 37.4375 23.1053V22.5251C37.4375 22.3337 37.5332 22.2379 37.7247 22.2379L38.0445 22.2389Z" fill="white"/>
<path d="M39.3084 22.4245H39.2338C39.1127 22.4277 38.9953 22.467 38.8968 22.5374V23.2354H39.1208V23.3914H38.5215V23.2354H38.7024V22.3967H38.5215V22.2407H38.8968V22.4111C38.9401 22.3588 38.9941 22.3166 39.0553 22.2872C39.1164 22.2577 39.1832 22.2419 39.251 22.2407H39.3084V22.4245Z" fill="white"/>
<path d="M40.1328 22.2388C40.3243 22.2388 40.42 22.3346 40.42 22.526V23.1062C40.42 23.2977 40.3243 23.3934 40.1328 23.3934H39.7872C39.5957 23.3934 39.5 23.2977 39.5 23.1062V22.526C39.5 22.3346 39.5957 22.2388 39.7872 22.2388H40.1328ZM40.2286 22.526C40.2286 22.4447 40.1941 22.4112 40.1137 22.4112H39.815C39.7317 22.4112 39.7001 22.4447 39.7001 22.526V23.1005C39.7001 23.1818 39.7317 23.2153 39.815 23.2153H40.1146C40.1951 23.2153 40.2295 23.1818 40.2295 23.1005L40.2286 22.526Z" fill="white"/>
<path d="M41.5704 23.3915H40.6504V23.2642L41.3206 22.4025H40.8687V22.594H40.6868V22.2417H41.5637V22.37L40.8936 23.2316H41.3866V23.0401H41.5685L41.5704 23.3915Z" fill="white"/>
<path d="M42.0038 23.112C42.0038 23.1934 42.0373 23.2269 42.1187 23.2269H42.4059C42.4892 23.2269 42.5208 23.1934 42.5208 23.112V23.0268H42.7123V23.1053C42.7123 23.2968 42.6165 23.3925 42.4251 23.3925H42.0919C41.9004 23.3925 41.8047 23.2968 41.8047 23.1053V22.5251C41.8047 22.3337 41.9004 22.2379 42.0919 22.2379H42.4251C42.6165 22.2379 42.7123 22.3337 42.7123 22.5251V22.8621H42.0019L42.0038 23.112ZM42.1187 22.4035C42.0373 22.4035 42.0038 22.437 42.0038 22.5184V22.7166H42.5198V22.5184C42.5198 22.437 42.4882 22.4035 42.405 22.4035H42.1187Z" fill="white"/>
<path d="M44.6916 23.3915H44.324V23.2288C44.2751 23.2876 44.2128 23.3339 44.1423 23.3637C44.0719 23.3935 43.9953 23.406 43.919 23.4001C43.6739 23.4001 43.582 23.3044 43.582 23.1072V22.5232C43.582 22.3221 43.6778 22.2302 43.919 22.2302C43.9952 22.2248 44.0715 22.2374 44.1419 22.267C44.2123 22.2966 44.2746 22.3424 44.324 22.4006V21.989H44.1153V21.8329H44.5183V23.2355H44.6916V23.3915ZM44.324 22.5232C44.2141 22.4404 44.0784 22.3993 43.941 22.4073C43.8089 22.4073 43.7773 22.4399 43.7773 22.5232V23.1072C43.7773 23.1905 43.8089 23.223 43.941 23.223C44.0784 23.231 44.2141 23.19 44.324 23.1072V22.5232Z" fill="white"/>
<path d="M45.0801 23.112C45.0801 23.1934 45.1137 23.2269 45.195 23.2269H45.4822C45.5655 23.2269 45.5971 23.1934 45.5971 23.112V23.0268H45.7886V23.1053C45.7886 23.2968 45.6929 23.3925 45.5014 23.3925H45.1759C44.9844 23.3925 44.8887 23.2968 44.8887 23.1053V22.5251C44.8887 22.3337 44.9844 22.2379 45.1759 22.2379H45.509C45.7005 22.2379 45.7963 22.3337 45.7963 22.5251V22.8621H45.0801V23.112ZM45.195 22.4035C45.1137 22.4035 45.0801 22.437 45.0801 22.5184V22.7166H45.5962V22.5184C45.5962 22.437 45.5646 22.4035 45.4813 22.4035H45.195Z" fill="white"/>
<path d="M47.7882 22.3067H47.6025V22.0741H47.0367V22.5528H47.6274V22.7366H47.0367V23.221H47.2732V23.3943H46.627V23.221H46.8318V22.0722H46.627V21.8989H47.7882V22.3067Z" fill="white"/>
<path d="M48.6231 22.2388C48.8145 22.2388 48.9103 22.3346 48.9103 22.526V23.1062C48.9103 23.2977 48.8145 23.3934 48.6231 23.3934H48.2774C48.086 23.3934 47.9902 23.2977 47.9902 23.1062V22.526C47.9902 22.3346 48.086 22.2388 48.2774 22.2388H48.6231ZM48.7188 22.526C48.7188 22.4447 48.6853 22.4112 48.6039 22.4112H48.3052C48.2219 22.4112 48.1894 22.4447 48.1894 22.526V23.1005C48.1894 23.1818 48.2219 23.2153 48.3052 23.2153H48.6039C48.6853 23.2153 48.7188 23.1818 48.7188 23.1005V22.526Z" fill="white"/>
<path d="M49.9031 22.4245H49.8284C49.7074 22.4277 49.59 22.467 49.4914 22.5374V23.2354H49.7155V23.3914H49.1162V23.2354H49.2942V22.3967H49.1133V22.2407H49.4886V22.4111C49.5319 22.3588 49.5859 22.3166 49.6471 22.2872C49.7082 22.2577 49.775 22.2419 49.8428 22.2407H49.9002L49.9031 22.4245Z" fill="white"/>
<path d="M50.4253 23.1071C50.4253 23.1885 50.4597 23.2229 50.5402 23.2229H50.701V23.3914H50.5172C50.3257 23.3914 50.23 23.2957 50.23 23.1042V22.4025H50.0586V22.2378H50.2309V21.9602H50.4224V22.2378H50.6981V22.4025H50.4224L50.4253 23.1071Z" fill="white"/>
<path d="M52.0017 23.3915H51.6369V23.2269C51.5916 23.2871 51.5315 23.3346 51.4623 23.3646C51.3932 23.3947 51.3174 23.4063 51.2425 23.3982C51.0079 23.3982 50.916 23.3025 50.916 23.0603C50.916 22.8181 51.0118 22.7492 51.2032 22.7281C51.3057 22.7166 51.4598 22.7022 51.6321 22.6955V22.5203C51.6321 22.437 51.6005 22.4055 51.5172 22.4055H51.2588C51.1755 22.4055 51.1439 22.437 51.1439 22.5203V22.5634H50.9524V22.5251C50.9524 22.3337 51.0481 22.2379 51.2396 22.2379H51.545C51.7365 22.2379 51.8322 22.3337 51.8322 22.5251V23.2355H52.0026L52.0017 23.3915ZM51.2358 22.8774C51.1458 22.8899 51.1113 22.9129 51.1113 23.0498C51.1113 23.1867 51.1439 23.2269 51.2655 23.2269C51.4001 23.232 51.5323 23.1897 51.6388 23.1072V22.82L51.2358 22.8774Z" fill="white"/>
<path d="M53.2851 22.5232V23.1072C53.2851 23.3083 53.1894 23.4002 52.9482 23.4002C52.8718 23.4055 52.7952 23.3928 52.7247 23.363C52.6542 23.3332 52.5917 23.2872 52.5422 23.2288V23.3916H52.1641V23.2355H52.345V21.9909H52.1641V21.8349H52.547V22.4026C52.5967 22.3445 52.6593 22.2988 52.7298 22.2692C52.8002 22.2397 52.8767 22.227 52.9529 22.2322C53.1932 22.2303 53.2851 22.3222 53.2851 22.5232ZM53.0937 22.529C53.0937 22.4399 53.0602 22.4074 52.929 22.4074C52.7917 22.3995 52.656 22.4406 52.5461 22.5232V23.1072C52.656 23.1899 52.7917 23.2309 52.929 23.2231C53.0602 23.2231 53.0937 23.1905 53.0937 23.1015V22.529Z" fill="white"/>
<path d="M54.6286 23.3915H54.2639V23.2269C54.2186 23.2871 54.1584 23.3346 54.0893 23.3646C54.0201 23.3947 53.9444 23.4063 53.8694 23.3982C53.6349 23.3982 53.543 23.3025 53.543 23.0603C53.543 22.8181 53.6435 22.7492 53.835 22.7281C53.9374 22.7166 54.0915 22.7022 54.2639 22.6955V22.5203C54.2639 22.437 54.2323 22.4055 54.149 22.4055H53.8886C53.8053 22.4055 53.7737 22.437 53.7737 22.5203V22.5634H53.5822V22.5251C53.5822 22.3337 53.678 22.2379 53.8694 22.2379H54.1758C54.3673 22.2379 54.463 22.3337 54.463 22.5251V23.2355H54.6334L54.6286 23.3915ZM53.8627 22.8774C53.7727 22.8899 53.7383 22.9129 53.7383 23.0498C53.7383 23.1867 53.7708 23.2269 53.8924 23.2269C54.027 23.232 54.1592 23.1897 54.2658 23.1072V22.82L53.8627 22.8774Z" fill="white"/>
<path d="M55.0727 23.1071C55.0727 23.1885 55.1062 23.2229 55.1876 23.2229H55.3475V23.3914H55.1637C54.9722 23.3914 54.8765 23.2957 54.8765 23.1042V22.4025H54.7051V22.2378H54.8784V21.9602H55.0698V22.2378H55.3446V22.4025H55.0698L55.0727 23.1071Z" fill="white"/>
</svg>
