<svg width="149" height="65" viewBox="0 0 149 65" fill="none" xmlns="http://www.w3.org/2000/svg">
<g clip-path="url(#clip0_1140_495)">
<path d="M102.441 35.5904H95.2834C95.1848 35.5904 95.0902 35.5513 95.0204 35.4816C94.9507 35.412 94.9115 35.3175 94.9115 35.219C94.9115 35.1204 94.9507 35.026 95.0204 34.9563C95.0902 34.8866 95.1848 34.8475 95.2834 34.8475H102.441C104.898 34.9032 107.344 34.5109 109.66 33.69C111.558 32.9842 113.257 31.8298 114.612 30.3253C115.962 28.7572 116.946 26.9085 117.492 24.9133C118.149 22.469 118.465 19.9457 118.431 17.4151C118.431 12.0809 117.042 8.064 114.3 5.48111C111.558 2.89821 107.558 1.59381 102.433 1.59381H91.1228V15.0223C91.1228 15.1208 91.0836 15.2153 91.0139 15.2849C90.9441 15.3546 90.8495 15.3937 90.7509 15.3937C90.6522 15.3937 90.5576 15.3546 90.4878 15.2849C90.4181 15.2153 90.3789 15.1208 90.3789 15.0223V0.816345H102.441C107.765 0.816345 111.93 2.1985 114.819 4.91961C117.708 7.64072 119.183 11.8304 119.183 17.3935C119.221 19.9945 118.895 22.588 118.214 25.099C117.643 27.2063 116.609 29.1599 115.187 30.8177C113.746 32.4104 111.94 33.6302 109.924 34.3724C107.524 35.2285 104.989 35.6412 102.441 35.5904ZM102.822 31.7765H94.9158V4.61294H102.934C104.788 4.56261 106.634 4.8706 108.371 5.51998C109.796 6.09017 111.051 7.01503 112.017 8.20654C112.993 9.45589 113.684 10.9036 114.041 12.448C114.465 14.2686 114.668 16.1335 114.646 18.0025C114.68 19.847 114.457 21.6872 113.985 23.4707C113.621 24.8166 113.049 26.0976 112.289 27.2673C111.663 28.2219 110.86 29.0486 109.924 29.7033C109.106 30.2647 108.219 30.719 107.285 31.0552C106.472 31.3492 105.627 31.5478 104.768 31.647C104.122 31.725 103.472 31.7683 102.822 31.7765ZM95.6554 31.0336H102.822C103.449 31.0336 104.072 30.9861 104.695 30.917C105.49 30.822 106.272 30.6365 107.026 30.3642C107.898 30.0447 108.728 29.6182 109.495 29.0943C110.349 28.4914 111.083 27.734 111.658 26.8613C112.37 25.7531 112.908 24.5427 113.254 23.272C113.717 21.5545 113.936 19.7808 113.907 18.0025C113.926 16.1971 113.727 14.3959 113.314 12.6381C112.986 11.1964 112.342 9.84523 111.429 8.68165C110.542 7.58454 109.386 6.73618 108.072 6.21969C106.426 5.60179 104.675 5.30843 102.917 5.35585H95.6511L95.6554 31.0336Z" fill="white"/>
<path d="M137.638 35.5904H132.344V5.35585H121.004V0.816345H149V5.37313H137.638V35.5904ZM133.105 34.8475H136.894V4.61294H148.251V1.55925H121.731V4.61294H133.105V34.8475Z" fill="white"/>
<path d="M34.3662 35.5904H28.5448L28.4583 35.3442L18.0135 6.36655L7.11884 35.5904H1.69531L15.2498 0.816345H20.7598L34.3662 35.5904ZM29.0811 34.8475H33.3023L20.2625 1.55925H15.7688L2.79386 34.8475H6.62147L18.0394 4.21126L29.0811 34.8475Z" fill="white"/>
<path d="M52.2443 36.3506C49.8161 36.3981 47.406 35.9238 45.1773 34.9598C43.2223 34.0735 41.4959 32.7528 40.1301 31.0984C38.7507 29.399 37.7217 27.4437 37.1026 25.3452C36.4291 23.0506 36.094 20.6701 36.1078 18.279C36.1014 15.8788 36.4676 13.4922 37.1934 11.2041C37.8586 9.07932 38.9276 7.10249 40.342 5.38177C41.7564 3.69992 43.5297 2.35547 45.532 1.44696C47.7595 0.454512 50.1775 -0.0393418 52.6163 2.21021e-05C54.3725 -0.0168441 56.1214 0.226232 57.8063 0.721332C59.3758 1.1784 60.8518 1.90957 62.1659 2.88094C63.4591 3.8446 64.5471 5.05598 65.3663 6.4443C66.2474 7.96052 66.815 9.63776 67.0358 11.3769C67.0426 11.4254 67.0398 11.4747 67.0275 11.5221C67.0152 11.5695 66.9937 11.6141 66.9642 11.6532C66.9347 11.6923 66.8977 11.7252 66.8555 11.75C66.8132 11.7749 66.7665 11.7912 66.7179 11.798C66.6693 11.8048 66.6199 11.802 66.5724 11.7897C66.525 11.7774 66.4804 11.7559 66.4412 11.7265C66.4021 11.697 66.3691 11.6601 66.3442 11.6179C66.3193 11.5757 66.303 11.529 66.2962 11.4805C66.089 9.84156 65.5536 8.26101 64.7219 6.83303C63.9526 5.52899 62.9325 4.38988 61.7204 3.48132C60.4722 2.56536 59.0728 1.87533 57.5857 1.44264C55.9781 0.969032 54.3097 0.733288 52.6336 0.742929C50.2967 0.698125 47.9786 1.16703 45.8434 2.11644C43.9406 2.97762 42.2557 4.25438 40.9129 5.85257C39.5542 7.49805 38.5263 9.3899 37.8854 11.4244C37.1872 13.6463 36.8399 15.9632 36.8561 18.2919C36.8438 20.6134 37.1716 22.9242 37.8292 25.1509C38.4089 27.1604 39.3821 29.0351 40.6923 30.6665C41.99 32.2283 43.6275 33.4736 45.4801 34.3076C47.614 35.227 49.9208 35.6777 52.2443 35.6293C56.4828 35.6293 59.865 34.4631 62.2956 32.1739C64.7262 29.8847 66.1881 26.5589 66.6206 22.3995C66.6231 22.3507 66.6353 22.3029 66.6563 22.2588C66.6774 22.2148 66.7069 22.1752 66.7433 22.1426C66.7796 22.1099 66.8221 22.0846 66.8682 22.0683C66.9143 22.052 66.9632 22.0449 67.012 22.0475C67.0608 22.0501 67.1087 22.0622 67.1529 22.0832C67.197 22.1042 67.2366 22.1337 67.2693 22.17C67.302 22.2063 67.3273 22.2487 67.3436 22.2948C67.36 22.3408 67.367 22.3896 67.3645 22.4384C67.3645 22.4384 67.3645 22.46 67.3645 22.4729C66.932 26.8354 65.3793 30.2778 62.8103 32.7138C60.2412 35.1499 56.6818 36.3506 52.2443 36.3506ZM52.6249 32.5842C50.7489 32.6275 48.89 32.2186 47.2057 31.3921C45.7323 30.6329 44.4548 29.5434 43.4733 28.2089C42.4736 26.8052 41.7487 25.2254 41.3367 23.5527C40.8756 21.7169 40.6475 19.8304 40.6577 17.9378C40.6538 16.1678 40.8821 14.405 41.3367 12.6942C41.7655 11.0662 42.4897 9.53047 43.4733 8.16335C44.4451 6.82977 45.714 5.74001 47.1798 4.98009C48.854 4.14751 50.7078 3.73956 52.5774 3.7923C54.8524 3.73591 57.088 4.39299 58.9697 5.67116C60.7775 6.92806 61.9583 8.83283 62.4859 11.3337C62.5123 11.4287 62.4998 11.5304 62.4511 11.6163C62.4024 11.7021 62.3216 11.7652 62.2264 11.7915C62.1312 11.8178 62.0294 11.8053 61.9434 11.7567C61.8575 11.7081 61.7943 11.6274 61.768 11.5323C61.768 11.5323 61.768 11.4978 61.768 11.4848C61.2792 9.17837 60.198 7.42477 58.5545 6.30177C56.7942 5.11825 54.7073 4.51416 52.586 4.57408C50.8373 4.52346 49.1029 4.90162 47.5344 5.67548C46.167 6.3824 44.9826 7.39669 44.0745 8.63847C43.1429 9.93196 42.4582 11.3859 42.0547 12.9275C41.6171 14.5748 41.3976 16.2723 41.4016 17.9766C41.393 19.801 41.6139 21.6192 42.059 23.3886C42.4439 24.9705 43.128 26.4644 44.0745 27.7899C44.9838 29.0306 46.1679 30.0447 47.5344 30.7529C49.1222 31.5171 50.8721 31.8847 52.6336 31.8241C53.9465 31.8386 55.2491 31.5919 56.4655 31.0984C57.5504 30.6451 58.5318 29.9765 59.3503 29.1332C60.1737 28.267 60.8201 27.2489 61.2533 26.1356C61.7201 24.9189 62.0015 23.6391 62.088 22.339C62.0907 22.2904 62.1032 22.2428 62.1245 22.199C62.1458 22.1552 62.1757 22.1161 62.2123 22.084C62.249 22.0518 62.2916 22.0272 62.3379 22.0117C62.3841 21.9962 62.4329 21.99 62.4816 21.9935C62.5297 21.9957 62.5769 22.0074 62.6204 22.028C62.6639 22.0486 62.7029 22.0776 62.7351 22.1134C62.7673 22.1492 62.7921 22.191 62.808 22.2364C62.8238 22.2818 62.8305 22.3299 62.8276 22.3779C62.7479 23.7547 62.4561 25.1111 61.9626 26.3991C61.4888 27.6112 60.7821 28.7191 59.8823 29.6601C58.9954 30.582 57.932 31.3164 56.7553 31.8197C55.4438 32.3486 54.0391 32.6086 52.6249 32.5842Z" fill="white"/>
<path d="M20.2831 24.0494C20.2823 24.4935 20.1497 24.9273 19.902 25.2961C19.6544 25.6648 19.3028 25.952 18.8918 26.1214C18.4808 26.2907 18.0287 26.3346 17.5927 26.2474C17.1568 26.1603 16.7564 25.946 16.4423 25.6317C16.1282 25.3175 15.9145 24.9173 15.8281 24.4817C15.7416 24.0461 15.7864 23.5948 15.9568 23.1846C16.1271 22.7745 16.4154 22.4239 16.7851 22.1773C17.1549 21.9307 17.5895 21.7991 18.0341 21.7991C18.631 21.8003 19.203 22.0378 19.6247 22.4597C20.0463 22.8816 20.2831 23.4534 20.2831 24.0494Z" fill="white"/>
<path d="M2.03594 47.4337C2.36722 47.4174 2.69732 47.4842 2.99609 47.6281C3.23416 47.7527 3.42984 47.9452 3.55834 48.181C3.70253 48.4493 3.79496 48.7424 3.83081 49.0448C3.87707 49.4187 3.89731 49.7954 3.89136 50.1721C3.89486 50.6056 3.86595 51.0387 3.80486 51.4679C3.75801 51.7861 3.65085 52.0925 3.48914 52.3706C3.34897 52.6016 3.14253 52.7852 2.89661 52.8976C2.59964 53.0211 2.27968 53.08 1.95809 53.0703H0.171875V47.4553L2.03594 47.4337ZM1.81537 52.2324C1.98283 52.2372 2.14899 52.2017 2.29977 52.1287C2.43135 52.0488 2.53428 51.9294 2.59387 51.7875C2.67543 51.5895 2.72365 51.3793 2.73659 51.1655C2.76254 50.9064 2.77119 50.5868 2.77119 50.2024C2.77853 49.9141 2.76842 49.6256 2.74092 49.3385C2.72818 49.1316 2.68444 48.9278 2.61117 48.7338C2.55498 48.5843 2.4518 48.457 2.31707 48.371C2.16171 48.2796 1.98225 48.2374 1.80239 48.2501H1.29637V52.2108L1.81537 52.2324Z" fill="white"/>
<path d="M4.70898 47.4337H5.84645V53.0487H4.70898V47.4337Z" fill="white"/>
<path d="M7.60597 51.4722C7.60698 51.5925 7.61856 51.7124 7.64057 51.8307C7.65839 51.929 7.69831 52.0221 7.75734 52.1028C7.81911 52.1804 7.89942 52.2413 7.99089 52.2799C8.1089 52.3216 8.23336 52.342 8.35852 52.3403C8.53037 52.3399 8.69683 52.2804 8.82994 52.1719C8.9024 52.1066 8.95882 52.0254 8.99482 51.9348C9.03083 51.8442 9.04544 51.7465 9.03754 51.6493C9.04168 51.5375 9.02405 51.426 8.98564 51.321C8.95071 51.225 8.8928 51.139 8.81697 51.0705C8.72416 50.9885 8.6191 50.9214 8.50557 50.8718C8.34993 50.7991 8.18954 50.7371 8.02549 50.6861C7.80023 50.6092 7.58058 50.5168 7.3681 50.4097C7.19673 50.3177 7.04182 50.198 6.90965 50.0555C6.78659 49.9228 6.69365 49.7652 6.63717 49.5933C6.57613 49.3947 6.54694 49.1877 6.55067 48.98C6.53169 48.7508 6.5633 48.5202 6.64326 48.3045C6.72322 48.0889 6.84958 47.8933 7.01345 47.7317C7.37574 47.4292 7.83933 47.2748 8.31094 47.2998C8.54737 47.296 8.78318 47.3251 9.01159 47.3862C9.21366 47.4335 9.40272 47.525 9.56519 47.654C9.72323 47.7787 9.84802 47.9404 9.92849 48.1248C10.0187 48.3438 10.0629 48.5791 10.0582 48.8159V48.9757H8.95104C8.9637 48.759 8.91419 48.5432 8.80832 48.3537C8.75492 48.2792 8.68286 48.2201 8.59937 48.1822C8.51587 48.1443 8.42386 48.1289 8.33257 48.1377C8.22443 48.1324 8.1165 48.1516 8.01684 48.1939C7.93882 48.2246 7.87022 48.2753 7.81789 48.3407C7.76503 48.3991 7.72913 48.4708 7.71409 48.5481C7.695 48.6288 7.68485 48.7113 7.68382 48.7943C7.67994 48.9459 7.71891 49.0956 7.79627 49.2262C7.91985 49.3791 8.08506 49.4931 8.27202 49.5544L9.13701 49.9345C9.32484 50.0093 9.5022 50.108 9.66466 50.2282C9.79196 50.3201 9.90305 50.4325 9.99336 50.5608C10.0756 50.6775 10.133 50.8098 10.162 50.9496C10.1931 51.106 10.209 51.2651 10.2096 51.4247C10.2316 51.6662 10.196 51.9095 10.1058 52.1347C10.0156 52.3599 9.87332 52.5606 9.69061 52.7204C9.26998 53.0138 8.76254 53.1568 8.25039 53.1264C7.75151 53.1694 7.2558 53.0142 6.87072 52.6945C6.72139 52.5338 6.60611 52.3446 6.53179 52.1382C6.45747 51.9319 6.42565 51.7127 6.43822 51.4938V51.2649H7.5757L7.60597 51.4722Z" fill="white"/>
<path d="M13.9438 48.3753H11.9327V49.6711H13.84V50.604H11.9327V52.1071H14.0389V53.0358H10.8125V47.4208H13.9654L13.9438 48.3753Z" fill="white"/>
<path d="M17.2992 51.2908V47.4337H18.3416V53.0487H17.0441L15.6557 49.1053V53.0487H14.5918V47.4337H15.8893L17.2992 51.2908ZM15.4957 46.3064C15.548 46.2262 15.62 46.1607 15.7048 46.1161C15.7895 46.0715 15.8843 46.0493 15.9801 46.0516C16.0967 46.0462 16.2131 46.0654 16.3218 46.1077L16.6981 46.2718C16.7735 46.3029 16.8543 46.319 16.9359 46.3194C16.9704 46.3196 17.0043 46.3105 17.0341 46.293C17.0638 46.2755 17.0882 46.2503 17.1046 46.22C17.1343 46.1638 17.152 46.102 17.1565 46.0386H17.7274C17.7089 46.2882 17.6271 46.5291 17.4895 46.7383C17.4357 46.8216 17.3621 46.8903 17.2754 46.9385C17.1887 46.9867 17.0914 47.0129 16.9922 47.0148C16.9068 47.0134 16.8222 46.9988 16.7413 46.9716L16.4905 46.8809L16.2569 46.7902C16.1932 46.761 16.1238 46.7462 16.0536 46.747C15.9239 46.747 15.8417 46.842 15.7985 47.032H15.2232C15.2448 46.773 15.3311 46.5235 15.4741 46.3064H15.4957Z" fill="white"/>
<path d="M19.0686 49.0707C19.0978 48.748 19.1857 48.4333 19.3281 48.1421C19.4534 47.8904 19.6505 47.6815 19.8947 47.5417C20.2146 47.3965 20.5619 47.3213 20.9132 47.3213C21.2646 47.3213 21.6119 47.3965 21.9318 47.5417C22.1801 47.6803 22.3817 47.8892 22.5113 48.1421C22.6537 48.4333 22.7417 48.748 22.7708 49.0707C22.853 49.8561 22.853 50.6479 22.7708 51.4333C22.7411 51.7546 22.6531 52.0678 22.5113 52.3576C22.3827 52.6091 22.1806 52.8154 21.9318 52.9494C21.2792 53.217 20.5473 53.217 19.8947 52.9494C19.6446 52.8157 19.441 52.6094 19.3108 52.3576C19.1674 52.0684 19.0794 51.7549 19.0513 51.4333C18.9749 50.6473 18.9807 49.8555 19.0686 49.0707ZM20.1758 51.2303C20.1882 51.4496 20.2245 51.6668 20.2839 51.8782C20.3258 52.0199 20.4086 52.1461 20.5218 52.241C20.6447 52.3145 20.7852 52.3533 20.9284 52.3533C21.0716 52.3533 21.2121 52.3145 21.3349 52.241C21.4482 52.1461 21.5309 52.0199 21.5728 51.8782C21.6377 51.6679 21.6755 51.4502 21.6852 51.2303C21.6852 50.9625 21.7112 50.6429 21.7112 50.2628C21.7112 49.8827 21.7112 49.5631 21.6852 49.2996C21.6763 49.0811 21.6385 48.8647 21.5728 48.6561C21.536 48.511 21.4524 48.3819 21.3349 48.2889C21.2172 48.2039 21.0734 48.1626 20.9284 48.1723C20.7835 48.1634 20.6399 48.2045 20.5218 48.2889C20.4044 48.3819 20.3208 48.511 20.2839 48.6561C20.2217 48.8654 20.1854 49.0815 20.1758 49.2996C20.1758 49.5631 20.1499 49.8827 20.1499 50.2628C20.1499 50.6429 20.1499 50.9496 20.1758 51.2174V51.2303Z" fill="white"/>
<path d="M28.437 48.3753H27.2044V53.0746H26.0669V48.3753H24.8516V47.4423H28.4543L28.437 48.3753Z" fill="white"/>
<path d="M31.0258 47.4337C31.427 47.4085 31.8229 47.5366 32.133 47.7922C32.2721 47.9363 32.3792 48.1081 32.447 48.2965C32.5149 48.4848 32.542 48.6854 32.5265 48.885C32.5392 49.2099 32.4597 49.5318 32.2973 49.8136C32.214 49.9359 32.1066 50.04 31.9817 50.1194C31.8568 50.1989 31.7169 50.2521 31.5707 50.2758C31.804 50.2936 32.024 50.3912 32.1935 50.5522C32.3458 50.7496 32.432 50.9899 32.44 51.239V52.0164C32.44 52.241 32.44 52.4483 32.4876 52.6989C32.4943 52.7648 32.5162 52.8283 32.5514 52.8845C32.5867 52.9407 32.6344 52.988 32.6909 53.0228V53.0703H31.5145C31.4562 52.9901 31.419 52.8965 31.4064 52.7982C31.4064 52.6989 31.3804 52.5909 31.3718 52.4786L31.3415 51.3988C31.3422 51.2131 31.2847 51.0319 31.1771 50.8805C31.1142 50.8107 31.0353 50.757 30.9473 50.7239C30.8592 50.6909 30.7645 50.6794 30.6711 50.6904H30.0613V53.0703H28.9238V47.4553L31.0258 47.4337ZM30.537 49.8957C30.7642 49.9095 30.9886 49.8404 31.1685 49.7013C31.2499 49.6147 31.3117 49.5117 31.3497 49.3992C31.3878 49.2866 31.4012 49.1673 31.3891 49.0491C31.4019 48.9589 31.3967 48.867 31.3738 48.7788C31.3509 48.6906 31.3107 48.6078 31.2557 48.5351C31.2006 48.4625 31.1317 48.4014 31.0529 48.3554C30.9741 48.3095 30.887 48.2795 30.7965 48.2673C30.7307 48.2565 30.6635 48.2565 30.5976 48.2673H30.0613V49.8914L30.537 49.8957Z" fill="white"/>
<path d="M35.8239 47.4337L37.3161 53.0487H36.131L35.8715 51.8566H34.3664L34.1026 53.0487H32.9219L34.4183 47.4337H35.8239ZM35.6726 50.9668L35.1276 48.4314L34.6 50.9668H35.6726Z" fill="white"/>
<path d="M40.421 51.2908V47.4337H41.4633V53.0487H40.1659L38.7732 49.1052V53.0487H37.7266V47.4337H39.0241L40.421 51.2908Z" fill="white"/>
<path d="M43.1629 51.4722C43.1624 51.5923 43.1725 51.7123 43.1932 51.8307C43.2117 51.9296 43.2532 52.0228 43.3143 52.1028C43.3743 52.1804 43.4532 52.2414 43.5435 52.2799C43.662 52.3196 43.7861 52.34 43.9111 52.3403C44.083 52.3399 44.2494 52.2804 44.3825 52.1719C44.455 52.1066 44.5114 52.0254 44.5474 51.9348C44.5834 51.8442 44.598 51.7465 44.5901 51.6493C44.594 51.5379 44.5779 51.4267 44.5426 51.321C44.5087 51.2234 44.4489 51.1368 44.3696 51.0705C44.2774 50.9876 44.1722 50.9204 44.0582 50.8718C43.9048 50.7973 43.7457 50.7352 43.5824 50.6861C43.3572 50.6092 43.1375 50.5168 42.925 50.4097C42.753 50.3167 42.5968 50.1972 42.4622 50.0555C42.3407 49.9216 42.248 49.7644 42.1898 49.5933C42.1287 49.3947 42.0995 49.1877 42.1033 48.98C42.0851 48.7505 42.1176 48.5198 42.1983 48.3042C42.279 48.0885 42.406 47.8931 42.5704 47.7317C42.9327 47.4292 43.3962 47.2748 43.8679 47.2998C44.1043 47.296 44.3401 47.3251 44.5685 47.3862C44.7699 47.4317 44.9579 47.5234 45.1178 47.654C45.2758 47.7787 45.4006 47.9404 45.4811 48.1248C45.5772 48.3422 45.623 48.5784 45.6152 48.8159V48.9757H44.5209C44.5342 48.7595 44.4862 48.5439 44.3825 48.3537C44.3291 48.2792 44.2571 48.2201 44.1736 48.1822C44.0901 48.1443 43.9981 48.1289 43.9068 48.1377C43.7987 48.1324 43.6907 48.1516 43.5911 48.1939C43.5144 48.222 43.4463 48.2694 43.3933 48.3314C43.3402 48.3934 43.3041 48.468 43.2883 48.5481C43.2671 48.6284 43.2569 48.7112 43.258 48.7943C43.2542 48.9459 43.2931 49.0956 43.3705 49.2262C43.4924 49.379 43.6562 49.493 43.8419 49.5544L44.7069 49.9345C44.8965 50.0083 45.0755 50.1071 45.2389 50.2282C45.3648 50.3202 45.4745 50.4327 45.5633 50.5608C45.6451 50.6783 45.7038 50.8102 45.7363 50.9496C45.7673 51.106 45.7832 51.2651 45.7838 51.4247C45.8058 51.6662 45.7702 51.9095 45.68 52.1347C45.5898 52.3599 45.4475 52.5606 45.2648 52.7204C44.8442 53.0138 44.3368 53.1568 43.8246 53.1264C43.3257 53.1694 42.83 53.0142 42.4449 52.6945C42.2956 52.5338 42.1803 52.3446 42.106 52.1382C42.0317 51.9319 41.9999 51.7127 42.0124 51.4938V51.2649H43.1499L43.1629 51.4722Z" fill="white"/>
<path d="M48.062 47.4337L48.8708 51.3988L49.6882 47.4208H51.3706V53.0358H50.3283V48.5697L49.3033 53.066H48.4383L47.4349 48.5697V53.066H46.3926V47.451L48.062 47.4337Z" fill="white"/>
<path d="M55.3599 48.3753H53.3445V49.6711H55.2388V50.604H53.3445V52.1071H55.4378V53.0358H52.207V47.4208H55.3599V48.3753Z" fill="white"/>
<path d="M57.9155 47.4337C58.2454 47.4178 58.574 47.4846 58.8714 47.6281C59.1102 47.7517 59.3062 47.9444 59.4336 48.181C59.5778 48.4493 59.6702 48.7424 59.7061 49.0448C59.8142 49.8475 59.8142 50.6609 59.7061 51.4636C59.6613 51.7823 59.554 52.089 59.3904 52.3663C59.2495 52.5951 59.0452 52.7782 58.8022 52.8932C58.5038 53.0172 58.1823 53.0761 57.8593 53.066H56.0645V47.451L57.9155 47.4337ZM57.6906 52.2324C57.8581 52.2372 58.0243 52.2017 58.175 52.1287C58.3046 52.0477 58.4059 51.9284 58.4648 51.7875C58.543 51.5886 58.5897 51.3788 58.6032 51.1656C58.6292 50.9064 58.6421 50.5868 58.6421 50.2024C58.6505 49.914 58.639 49.6253 58.6075 49.3385C58.5948 49.1316 58.5511 48.9278 58.4778 48.7338C58.4216 48.5843 58.3184 48.457 58.1837 48.371C58.0283 48.2796 57.8489 48.2375 57.669 48.2501H57.1846V52.2108L57.6906 52.2324Z" fill="white"/>
<path d="M60.584 47.4337H61.7215V53.0487H60.584V47.4337Z" fill="white"/>
<path d="M65.0739 47.4337L66.5661 53.0487H65.381L65.1215 51.8566H63.6207L63.3569 53.0487H62.1719L63.664 47.4337H65.0739ZM64.9226 50.9452L64.3776 48.4098L63.8327 50.9668L64.9226 50.9452Z" fill="white"/>
<path d="M70.2243 49.6106L71.0158 47.451H72.2484L70.7865 50.8675V53.0833H69.6318V50.8675L68.1699 47.451H69.4674L70.2243 49.6106Z" fill="white"/>
<path d="M76.7986 47.4337L78.2907 53.0487H77.1056L76.8461 51.8566H75.341L75.0815 53.0487H73.8965L75.3886 47.4337H76.7986ZM76.6472 50.9452L76.1195 48.4098L75.5573 50.9668L76.6472 50.9452Z" fill="white"/>
<path d="M80.7855 47.4337C81.1868 47.4085 81.5827 47.5366 81.8927 47.7922C82.0319 47.9363 82.139 48.1081 82.2068 48.2965C82.2746 48.4848 82.3017 48.6854 82.2863 48.885C82.3021 49.2102 82.2224 49.533 82.0571 49.8136C81.9757 49.934 81.871 50.0369 81.7492 50.1163C81.6274 50.1957 81.4909 50.2499 81.3478 50.2758C81.5815 50.2918 81.8021 50.3897 81.9706 50.5522C82.1229 50.7496 82.2091 50.9899 82.2171 51.239C82.2141 51.3545 82.2213 51.4702 82.2387 51.5845C82.2496 51.7283 82.2496 51.8726 82.2387 52.0164C82.2387 52.241 82.2387 52.4483 82.2863 52.6989C82.293 52.7648 82.3149 52.8283 82.3501 52.8845C82.3854 52.9407 82.4331 52.988 82.4896 53.0228V53.0703H81.257C81.1987 52.9901 81.1615 52.8965 81.1488 52.7982C81.1325 52.6923 81.1224 52.5856 81.1186 52.4786L81.084 51.3988C81.0865 51.2128 81.0288 51.0311 80.9196 50.8805C80.8566 50.8107 80.7778 50.757 80.6898 50.7239C80.6017 50.6909 80.507 50.6794 80.4136 50.6904H79.8211V53.0703H78.6836V47.4553L80.7855 47.4337ZM80.2968 49.8957C80.5239 49.9095 80.7483 49.8404 80.9283 49.7013C81.0096 49.6147 81.0715 49.5117 81.1095 49.3992C81.1476 49.2866 81.161 49.1673 81.1488 49.0491C81.1616 48.9589 81.1564 48.867 81.1335 48.7788C81.1106 48.6906 81.0705 48.6078 81.0154 48.5351C80.9604 48.4625 80.8915 48.4014 80.8127 48.3554C80.7339 48.3095 80.6467 48.2795 80.5563 48.2673C80.4904 48.2565 80.4232 48.2565 80.3574 48.2673H79.8211V49.8914L80.2968 49.8957Z" fill="white"/>
<path d="M86.2394 48.3753H85.0068V53.0746H83.8693V48.3753H82.6367V47.4423H86.2394V48.3753Z" fill="white"/>
<path d="M89.8814 48.3753H87.866V49.6711H89.7603V50.604H87.866V52.1071H89.9593V53.0358H86.7285V47.4208H89.8814V48.3753Z" fill="white"/>
<path d="M94.6867 48.4401C94.6358 48.3459 94.5581 48.269 94.4634 48.219C94.3687 48.169 94.2612 48.1482 94.1547 48.1593C94.0273 48.1519 93.9018 48.1936 93.8044 48.276C93.6963 48.3733 93.6208 48.5015 93.5881 48.6431C93.5244 48.8625 93.4867 49.0887 93.4757 49.3169C93.4757 49.5933 93.4454 49.9302 93.4454 50.3276C93.4404 50.6737 93.4548 51.0198 93.4886 51.3642C93.5036 51.5726 93.5488 51.7778 93.6227 51.9732C93.6628 52.0946 93.7438 52.1984 93.8519 52.2669C93.9518 52.315 94.0612 52.3401 94.172 52.3404C94.2681 52.3404 94.3634 52.3228 94.4531 52.2885C94.5468 52.2449 94.6252 52.1742 94.678 52.0855C94.75 51.9504 94.7997 51.8045 94.8251 51.6536C94.8674 51.4112 94.8863 51.1653 94.8813 50.9193H96.0144C96.015 51.2087 95.9919 51.4976 95.9452 51.7832C95.903 52.0366 95.8135 52.2798 95.6814 52.5002C95.5454 52.7053 95.3574 52.8707 95.1365 52.9796C94.5122 53.2186 93.8197 53.2078 93.2032 52.9494C92.9544 52.8154 92.7522 52.609 92.6237 52.3576C92.4804 52.068 92.391 51.7548 92.3598 51.4333C92.2863 50.6475 92.2863 49.8565 92.3598 49.0707C92.3904 48.7477 92.4798 48.433 92.6237 48.1421C92.7532 47.8892 92.9549 47.6803 93.2032 47.5417C93.5149 47.4028 93.8523 47.331 94.1936 47.331C94.5349 47.331 94.8724 47.4028 95.184 47.5417C95.4007 47.6583 95.5816 47.8314 95.7074 48.0427C95.8248 48.244 95.8985 48.4677 95.9236 48.6992C95.9532 48.9168 95.9677 49.1362 95.9669 49.3558H94.8294C94.8539 49.0436 94.8051 48.73 94.6867 48.4401Z" fill="white"/>
<path d="M96.6059 49.0707C96.6365 48.7477 96.7259 48.433 96.8697 48.1421C96.9993 47.8892 97.201 47.6803 97.4493 47.5417C97.7692 47.3965 98.1165 47.3213 98.4678 47.3213C98.8192 47.3213 99.1665 47.3965 99.4864 47.5417C99.7347 47.6803 99.9363 47.8892 100.066 48.1421C100.21 48.433 100.299 48.7477 100.33 49.0707C100.403 49.8565 100.403 50.6475 100.33 51.4333C100.299 51.7548 100.209 52.068 100.066 52.3576C99.9387 52.61 99.7362 52.8168 99.4864 52.9494C98.8338 53.217 98.1019 53.217 97.4493 52.9494C97.1994 52.8168 96.9969 52.61 96.8697 52.3576C96.7249 52.0687 96.6354 51.7552 96.6059 51.4333C96.5324 50.6475 96.5324 49.8565 96.6059 49.0707ZM97.7131 51.2303C97.7229 51.4502 97.7607 51.6679 97.8256 51.8782C97.8658 52.0196 97.9471 52.1458 98.0591 52.241C98.1832 52.3131 98.3243 52.3511 98.4678 52.3511C98.6114 52.3511 98.7524 52.3131 98.8765 52.241C98.9886 52.1458 99.0699 52.0196 99.1101 51.8782C99.175 51.6679 99.2128 51.4502 99.2225 51.2303C99.2225 50.9625 99.2485 50.6429 99.2485 50.2628C99.2485 49.8827 99.2485 49.5631 99.2225 49.2996C99.2136 49.0811 99.1758 48.8647 99.1101 48.6561C99.0747 48.5114 98.9926 48.3824 98.8765 48.2889C98.7539 48.2128 98.6123 48.1724 98.4678 48.1724C98.3234 48.1724 98.1818 48.2128 98.0591 48.2889C97.943 48.3824 97.8609 48.5114 97.8256 48.6561C97.7599 48.8647 97.7221 49.0811 97.7131 49.2996C97.7131 49.5631 97.6872 49.8827 97.6872 50.2628C97.6872 50.6429 97.6872 50.9496 97.7131 51.2174V51.2303Z" fill="white"/>
<path d="M103.747 51.2908V47.4337H104.789V53.0487H103.492L102.099 49.1052V53.0487H101.057V47.4337H102.354L103.747 51.2908Z" fill="white"/>
<path d="M108.898 48.3753H107.665V53.0746H106.528V48.3753H105.295V47.4423H108.898V48.3753Z" fill="white"/>
<path d="M112.54 48.3753H110.524V49.6711H112.423V50.604H110.524V52.1071H112.617V53.0358H109.387V47.4208H112.54V48.3753Z" fill="white"/>
<path d="M114.902 47.4337L115.711 51.4117L116.524 47.4337H118.211V53.0487H117.164V48.5696L116.161 53.066H115.274L114.271 48.5696V53.066H113.211V47.451L114.902 47.4337Z" fill="white"/>
<path d="M121.025 47.4337C121.277 47.4238 121.527 47.4742 121.756 47.5805C121.943 47.668 122.108 47.7982 122.236 47.9606C122.357 48.1217 122.445 48.3052 122.495 48.5005C122.547 48.7038 122.573 48.9128 122.573 49.1225C122.577 49.3803 122.533 49.6367 122.443 49.8784C122.365 50.0811 122.24 50.2629 122.08 50.4096C121.913 50.5483 121.721 50.6525 121.513 50.7163C121.274 50.7855 121.027 50.8204 120.778 50.82H120.173V53.066H119.035V47.451L121.025 47.4337ZM120.679 49.982C120.881 49.9866 121.077 49.914 121.228 49.779C121.304 49.6917 121.361 49.5902 121.397 49.4804C121.432 49.3706 121.445 49.2548 121.436 49.1398C121.453 48.9092 121.389 48.6797 121.254 48.4919C121.176 48.4111 121.08 48.3492 120.975 48.311C120.869 48.2728 120.756 48.2593 120.644 48.2716H120.173V49.9993L120.679 49.982Z" fill="white"/>
<path d="M123.075 49.0707C123.104 48.748 123.192 48.4333 123.335 48.1421C123.465 47.888 123.668 47.6788 123.919 47.5417C124.239 47.3965 124.586 47.3213 124.937 47.3213C125.289 47.3213 125.636 47.3965 125.956 47.5417C126.204 47.6803 126.406 47.8892 126.535 48.1421C126.679 48.433 126.768 48.7477 126.799 49.0707C126.873 49.8565 126.873 50.6475 126.799 51.4333C126.767 51.7547 126.678 52.0678 126.535 52.3576C126.407 52.6091 126.205 52.8154 125.956 52.9494C125.303 53.217 124.571 53.217 123.919 52.9494C123.669 52.8157 123.465 52.6094 123.335 52.3576C123.191 52.0684 123.103 51.7549 123.075 51.4333C122.993 50.6479 122.993 49.8561 123.075 49.0707ZM124.182 51.2303C124.195 51.4496 124.231 51.6668 124.291 51.8782C124.332 52.0199 124.415 52.1461 124.528 52.241C124.651 52.3145 124.792 52.3533 124.935 52.3533C125.078 52.3533 125.219 52.3145 125.342 52.241C125.455 52.1461 125.538 52.0199 125.579 51.8782C125.644 51.6679 125.682 51.4502 125.692 51.2303C125.692 50.9625 125.718 50.6429 125.718 50.2628C125.718 49.8827 125.718 49.5631 125.692 49.2996C125.683 49.0811 125.645 48.8647 125.579 48.6561C125.543 48.511 125.459 48.3819 125.342 48.2889C125.22 48.2127 125.079 48.1722 124.935 48.1722C124.791 48.1722 124.65 48.2127 124.528 48.2889C124.411 48.3819 124.327 48.511 124.291 48.6561C124.228 48.8654 124.192 49.0815 124.182 49.2996C124.182 49.5631 124.157 49.8827 124.157 50.2628C124.157 50.6429 124.157 50.9496 124.182 51.2174V51.2303Z" fill="white"/>
<path d="M129.628 47.4337C130.029 47.4085 130.425 47.5366 130.735 47.7922C130.876 47.9354 130.984 48.107 131.053 48.2955C131.122 48.484 131.149 48.685 131.133 48.885C131.146 49.2099 131.066 49.5318 130.904 49.8136C130.821 49.9349 130.714 50.0383 130.59 50.1177C130.466 50.1971 130.327 50.2508 130.182 50.2758C130.415 50.2918 130.636 50.3897 130.805 50.5522C130.96 50.7477 131.047 50.9891 131.051 51.239C131.047 51.3547 131.056 51.4706 131.077 51.5845C131.09 51.7282 131.09 51.8727 131.077 52.0164C131.077 52.2447 131.093 52.4728 131.125 52.6989C131.132 52.7652 131.154 52.829 131.19 52.8852C131.226 52.9414 131.275 52.9885 131.332 53.0228V53.0703H130.113C130.053 52.9903 130.014 52.8968 130 52.7982C130 52.6989 129.974 52.5909 129.97 52.4786L129.94 51.3988C129.941 51.2123 129.882 51.0305 129.771 50.8805C129.708 50.8107 129.629 50.757 129.541 50.7239C129.453 50.6909 129.358 50.6794 129.265 50.6904H128.642V53.0703H127.518V47.4553L129.628 47.4337ZM129.139 49.8957C129.367 49.9095 129.591 49.8404 129.771 49.7013C129.851 49.6139 129.913 49.5108 129.951 49.3986C129.99 49.2864 130.005 49.1674 129.996 49.0491C130.009 48.9589 130.003 48.867 129.981 48.7788C129.958 48.6906 129.917 48.6078 129.862 48.5351C129.807 48.4625 129.738 48.4014 129.66 48.3554C129.581 48.3095 129.494 48.2795 129.403 48.2673C129.337 48.2565 129.27 48.2565 129.204 48.2673H128.651V49.8914L129.139 49.8957Z" fill="white"/>
<path d="M134.425 47.4337L135.917 53.0487H134.732L134.472 51.8566H132.976L132.716 53.0487H131.531L133.023 47.4337H134.425ZM134.278 50.9453L133.728 48.4099L133.183 50.9669L134.278 50.9453ZM134.71 45.9652L133.936 47.1012H133.209L133.642 45.9652H134.71Z" fill="white"/>
<path d="M139 51.2908V47.4337H140.043V53.0487H138.745L137.357 49.1052V53.0487H136.314V47.4337H137.612L139 51.2908Z" fill="white"/>
<path d="M144.022 48.3753H141.989V49.6711H143.883V50.604H141.989V52.1071H144.082V53.0358H140.852V47.4208H144.022V48.3753Z" fill="white"/>
<path d="M144.593 49.0707C144.622 48.748 144.71 48.4333 144.852 48.1421C144.982 47.8892 145.184 47.6803 145.432 47.5417C145.752 47.3965 146.099 47.3213 146.45 47.3213C146.802 47.3213 147.149 47.3965 147.469 47.5417C147.72 47.6788 147.923 47.888 148.053 48.1421C148.195 48.4333 148.283 48.748 148.312 49.0707C148.395 49.8561 148.395 50.6479 148.312 51.4333C148.283 51.7546 148.195 52.0678 148.053 52.3576C147.923 52.6094 147.719 52.8157 147.469 52.9494C146.816 53.217 146.085 53.217 145.432 52.9494C145.183 52.8154 144.981 52.6091 144.852 52.3576C144.709 52.0684 144.621 51.7549 144.593 51.4333C144.511 50.6479 144.511 49.8561 144.593 49.0707ZM145.696 51.2303C145.71 51.4497 145.747 51.667 145.808 51.8782C145.85 52.0199 145.933 52.1461 146.046 52.241C146.169 52.3145 146.309 52.3533 146.453 52.3533C146.596 52.3533 146.736 52.3145 146.859 52.241C146.972 52.1461 147.055 52.0199 147.097 51.8782C147.157 51.6668 147.193 51.4496 147.205 51.2303C147.227 50.9625 147.235 50.6429 147.235 50.2628C147.242 49.9415 147.232 49.6199 147.205 49.2996C147.196 49.0815 147.159 48.8654 147.097 48.6561C147.06 48.511 146.977 48.3819 146.859 48.2889C146.741 48.2045 146.598 48.1634 146.453 48.1723C146.308 48.1626 146.164 48.2039 146.046 48.2889C145.929 48.3819 145.845 48.511 145.808 48.6561C145.745 48.8652 145.707 49.0813 145.696 49.2996C145.696 49.5631 145.67 49.8827 145.67 50.2628C145.67 50.6429 145.67 50.9496 145.696 51.2174V51.2303Z" fill="white"/>
<path d="M2.38219 59.2036C2.33018 59.1095 2.25162 59.0327 2.15628 58.9828C2.06093 58.9329 1.953 58.912 1.84589 58.9229C1.71925 58.9159 1.5945 58.9559 1.49557 59.0352C1.38748 59.1325 1.31198 59.2607 1.27932 59.4023C1.2181 59.6223 1.1804 59.8482 1.16687 60.0761C1.16687 60.3525 1.13659 60.6894 1.13659 61.0868C1.12639 61.4329 1.14084 61.7793 1.17984 62.1234C1.19104 62.3307 1.23032 62.5356 1.29662 62.7324C1.33938 62.8524 1.41977 62.9554 1.52584 63.0261C1.62567 63.0742 1.73505 63.0993 1.84589 63.0995C1.95268 63.1082 2.06012 63.095 2.16161 63.0607C2.25623 63.0185 2.33499 62.9474 2.38651 62.8577C2.45987 62.7227 2.51098 62.5769 2.53789 62.4257C2.57869 62.1788 2.5975 61.9288 2.59411 61.6785H3.71428C3.71344 61.968 3.68885 62.2569 3.64076 62.5424C3.60051 62.7963 3.51089 63.0398 3.37693 63.2594C3.24094 63.4645 3.0529 63.6299 2.83199 63.7388C2.54486 63.8648 2.23279 63.9238 1.91942 63.9116C1.56797 63.9245 1.21838 63.855 0.898719 63.7086C0.649878 63.5746 0.447742 63.3682 0.319171 63.1168C0.176303 62.8289 0.0883073 62.5169 0.0596724 62.1968C-0.022495 61.4114 -0.022495 60.6196 0.0596724 59.8342C0.0888233 59.5115 0.176766 59.1968 0.319171 58.9056C0.449436 58.6543 0.651031 58.447 0.898719 58.3095C1.21615 58.1464 1.57175 58.0718 1.92807 58.0936C2.25988 58.0765 2.59051 58.1449 2.88821 58.2923C3.10678 58.4062 3.28831 58.58 3.41153 58.7933C3.52867 58.995 3.6037 59.2183 3.63211 59.4498C3.65806 59.6658 3.67103 59.8817 3.67536 60.1063H2.52924C2.5474 59.7983 2.49718 59.49 2.38219 59.2036Z" fill="white"/>
<path d="M6.86258 58.1972L8.35903 63.8122H7.17398L6.91881 62.6287H5.40939L5.14989 63.8208H3.96484L5.45696 58.2058L6.86258 58.1972ZM6.71553 61.7087L6.17059 59.1734L5.62131 61.7087H6.71553ZM7.14803 56.7287L6.37386 57.8776H5.64726L6.07976 56.7416L7.14803 56.7287Z" fill="white"/>
<path d="M12.0578 59.1302H10.8122V63.8295H9.6877V59.1302H8.45508V58.1972H12.0578V59.1302Z" fill="white"/>
<path d="M15.6983 59.1302H13.6828V60.4691H15.5685V61.4021H13.6828V62.9397H15.7675V63.8684H12.541V58.2534H15.6983V59.1302Z" fill="white"/>
<path d="M18.2684 58.1972C18.5982 58.1812 18.9268 58.2481 19.2242 58.3916C19.463 58.5152 19.659 58.7078 19.7864 58.9444C19.9306 59.2128 20.0231 59.5058 20.0589 59.8083C20.167 60.6109 20.167 61.4244 20.0589 62.2271C20.0136 62.545 19.9079 62.8514 19.7475 63.1298C19.605 63.3588 19.3992 63.5417 19.155 63.6567C18.8566 63.7807 18.5352 63.8396 18.2121 63.8295H16.4043V58.2145L18.2684 58.1972ZM18.0435 62.9959C18.2109 63.0007 18.3771 62.9651 18.5279 62.8922C18.6575 62.8111 18.7587 62.6919 18.8176 62.551C18.8971 62.3523 18.9453 62.1425 18.9604 61.929C18.9604 61.6699 18.995 61.3502 18.995 60.9658C19.0034 60.6774 18.9918 60.3888 18.9604 60.102C18.9476 59.8951 18.9039 59.6913 18.8306 59.4973C18.7761 59.3481 18.6744 59.2207 18.5408 59.1345C18.3837 59.0435 18.203 59.0014 18.0218 59.0136H17.5418V62.9743L18.0435 62.9959Z" fill="white"/>
<path d="M22.9828 58.1972C23.3841 58.172 23.7799 58.3002 24.09 58.5557C24.2301 58.6991 24.3377 58.8709 24.4056 59.0594C24.4735 59.2479 24.5001 59.4488 24.4836 59.6485C24.4994 59.9737 24.4197 60.2965 24.2543 60.5771C24.174 60.6966 24.0706 60.799 23.9504 60.8783C23.8301 60.9576 23.6953 61.0123 23.5537 61.0393C23.7874 61.0553 24.008 61.1532 24.1765 61.3157C24.3332 61.5154 24.4185 61.7617 24.4187 62.0154C24.4085 62.1304 24.4085 62.246 24.4187 62.361C24.4296 62.5047 24.4296 62.6491 24.4187 62.7929C24.4183 63.0226 24.4342 63.2521 24.4663 63.4796C24.473 63.5456 24.4948 63.6091 24.5301 63.6653C24.5653 63.7215 24.613 63.7688 24.6695 63.8036V63.8511H23.4715C23.415 63.7699 23.378 63.6768 23.3634 63.579C23.3471 63.4731 23.337 63.3664 23.3331 63.2594L23.2985 62.1796C23.305 61.9804 23.2424 61.785 23.1212 61.6267C23.0582 61.5569 22.9794 61.5032 22.8913 61.4702C22.8033 61.4371 22.7086 61.4256 22.6152 61.4367H22.0183V63.8165H20.8809V58.2016L22.9828 58.1972ZM22.4898 60.6592C22.7169 60.673 22.9413 60.6039 23.1212 60.4648C23.2026 60.3782 23.2644 60.2752 23.3025 60.1627C23.3405 60.0501 23.3539 59.9308 23.3418 59.8126C23.3546 59.7224 23.3494 59.6305 23.3265 59.5423C23.3036 59.4541 23.2635 59.3713 23.2084 59.2986C23.1533 59.226 23.0844 59.1649 23.0056 59.1189C22.9268 59.073 22.8397 59.043 22.7493 59.0308C22.6848 59.0201 22.6191 59.0201 22.5546 59.0308H22.0183V60.6549L22.4898 60.6592Z" fill="white"/>
<path d="M27.7786 58.1972L29.2707 63.8122H28.0857L27.8262 62.6201H26.3254L26.0659 63.8122H24.8809L26.373 58.1972H27.7786ZM27.6272 61.7087L27.0823 59.1734L26.5373 61.7087H27.6272Z" fill="white"/>
<path d="M31.5723 58.1972H32.7097V62.9224H34.7252V63.8511H31.5723V58.1972Z" fill="white"/>
<path d="M37.7259 58.1972L39.218 63.8122H38.0329L37.7734 62.6201H36.2727L36.0132 63.8122H34.8281L36.3202 58.1972H37.7259ZM37.5745 61.7087L37.0295 59.1734L36.4846 61.7087H37.5745Z" fill="white"/>
<path d="M44.6638 58.1972V59.1302H42.6484V60.4691H44.547V61.4021H42.6484V63.8468H41.5195V58.2318L44.6638 58.1972Z" fill="white"/>
<path d="M48.322 59.1302H46.3066V60.4691H48.2052V61.4021H46.3109V62.9397H48.4042V63.8684H45.1777V58.2534H48.3306L48.322 59.1302Z" fill="white"/>
<path d="M51.0733 58.1972C51.4733 58.1722 51.8677 58.3004 52.1762 58.5557C52.3169 58.6989 52.4251 58.8705 52.4938 59.059C52.5624 59.2475 52.5898 59.4485 52.5741 59.6485C52.5867 59.9734 52.5073 60.2953 52.3449 60.5771C52.2625 60.6975 52.157 60.8003 52.0345 60.8797C51.912 60.959 51.7749 61.0133 51.6313 61.0393C51.8656 61.0578 52.0867 61.1553 52.2584 61.3157C52.4113 61.5125 52.4962 61.7534 52.5006 62.0025C52.4969 62.1182 52.5056 62.2341 52.5265 62.348C52.5396 62.4917 52.5396 62.6363 52.5265 62.7799C52.5261 63.0097 52.542 63.2392 52.5741 63.4667C52.5813 63.533 52.6038 63.5968 52.6398 63.653C52.6758 63.7092 52.7244 63.7563 52.7817 63.7906V63.8381H51.5491C51.4896 63.7582 51.4509 63.6646 51.4366 63.566C51.4366 63.4667 51.4107 63.3587 51.4064 63.2464L51.3761 62.1666C51.3865 61.9761 51.3366 61.7872 51.2334 61.6267C51.1704 61.5569 51.0916 61.5032 51.0035 61.4702C50.9155 61.4371 50.8208 61.4256 50.7273 61.4366H50.1218V63.8165H48.9844V58.2015L51.0733 58.1972ZM50.5803 60.6592C50.8074 60.673 51.0318 60.6039 51.2117 60.4648C51.2946 60.3791 51.3577 60.2763 51.3966 60.1636C51.4354 60.0509 51.4491 59.9311 51.4366 59.8126C51.4494 59.7224 51.4442 59.6305 51.4213 59.5423C51.3985 59.4541 51.3583 59.3713 51.3032 59.2986C51.2482 59.226 51.1793 59.1649 51.1005 59.1189C51.0217 59.073 50.9345 59.043 50.8441 59.0308C50.7782 59.02 50.711 59.02 50.6452 59.0308H50.1089V60.6549L50.5803 60.6592Z" fill="white"/>
<path d="M53.3617 58.1972H54.4949V62.9224H56.5103V63.8511H53.3574L53.3617 58.1972Z" fill="white"/>
<path d="M59.5247 58.1972L61.0211 63.8122H59.8361L59.5723 62.6201H58.0715L57.812 63.8122H56.627L58.1191 58.1972H59.5247ZM59.3733 61.7087L58.8197 59.1734L58.2748 61.7087H59.3733Z" fill="white"/>
<path d="M64.6714 58.0892H65.1904L63.3436 63.9245H62.8203L64.6714 58.0892Z" fill="white"/>
<path d="M67.404 58.1972H68.1003V62.1579C68.1003 62.9872 68.3685 63.3716 69.0562 63.3716C69.7438 63.3716 70.0163 62.9397 70.0163 62.1579V58.1972H70.6953V62.1579C70.6953 63.2378 70.1417 63.9418 69.0389 63.9418C67.936 63.9418 67.3867 63.3198 67.3867 62.1579L67.404 58.1972Z" fill="white"/>
<path d="M71.5605 58.1972H73.2905C73.4859 58.1735 73.6842 58.1945 73.8702 58.2586C74.0563 58.3227 74.2253 58.4283 74.3645 58.5673C74.5037 58.7063 74.6094 58.8751 74.6736 59.0609C74.7378 59.2467 74.7588 59.4447 74.7351 59.6399C74.741 59.898 74.6645 60.1514 74.5168 60.3633C74.3691 60.5752 74.1578 60.7348 73.9133 60.819C74.2215 60.889 74.4935 61.069 74.6782 61.325C74.863 61.5811 74.9478 61.8957 74.9167 62.2098C74.9167 63.3544 74.268 63.8165 73.0916 63.8165H71.5605V58.1972ZM72.2525 60.629H73.0527C73.1657 60.6416 73.2801 60.6318 73.3894 60.6002C73.4986 60.5685 73.6006 60.5157 73.6894 60.4447C73.7781 60.3737 73.852 60.2859 73.9068 60.1863C73.9615 60.0868 73.9961 59.9774 74.0085 59.8645C74.0128 59.8055 74.0128 59.7463 74.0085 59.6874C74.0085 59.1043 73.7144 58.7674 73.0354 58.7674H72.2525V60.629ZM72.2525 63.2637H73.1997C73.3369 63.2737 73.4745 63.2532 73.6028 63.2036C73.7311 63.1541 73.8467 63.0767 73.9415 62.9772C74.0362 62.8776 74.1076 62.7583 74.1506 62.6279C74.1936 62.4974 74.2071 62.359 74.1901 62.2228C74.2142 61.9604 74.1329 61.6993 73.9642 61.4968C73.7955 61.2943 73.5532 61.167 73.2905 61.1429C73.2216 61.1343 73.1519 61.1343 73.0829 61.1429H72.2525V63.2637Z" fill="white"/>
<path d="M76.7717 58.1972H77.7059L79.224 63.8122H78.4801L78.0735 62.2659H76.2743L75.8418 63.8122H75.1152L76.7717 58.1972ZM76.4344 61.7174H77.9524L77.2302 58.9963L76.4344 61.7174Z" fill="white"/>
<path d="M79.7441 62.9959H80.4707V63.6826C80.4707 64.2787 80.4232 64.8186 79.7441 65V64.6501C79.8627 64.6029 79.9618 64.517 80.0254 64.4065C80.089 64.296 80.1133 64.1672 80.0945 64.0411V63.8511H79.7441V62.9959Z" fill="white"/>
<path d="M83.125 58.1972H86.04V58.8149H83.8213V60.5814H85.9146V61.1948H83.8213V63.8295H83.125V58.1972Z" fill="white"/>
<path d="M87.3208 58.1972H88.255L89.7687 63.8122H89.0422L88.6399 62.2659H86.8407L86.4082 63.8122H85.6816L87.3208 58.1972ZM86.9835 61.7174H88.4972L87.7793 58.9963L86.9835 61.7174Z" fill="white"/>
<path d="M90.2363 58.1972H91.7457C93.5017 58.1972 93.7223 59.4584 93.7223 61.0133C93.7223 62.4344 93.3676 63.8295 91.8193 63.8295H90.2363V58.1972ZM90.9327 63.2637H91.6592C92.8616 63.2637 92.9957 62.0327 92.9957 61.022C92.9957 59.9335 92.9221 58.7674 91.6592 58.7674H90.9327V63.2637Z" fill="white"/>
<path d="M94.4824 58.1972H95.1787V62.1579C95.1787 62.9872 95.4469 63.3716 96.1346 63.3716C96.8222 63.3716 97.0947 62.9397 97.0947 62.1579V58.1972H97.791V62.1579C97.791 63.2378 97.2374 63.9418 96.1346 63.9418C95.0317 63.9418 94.4824 63.3198 94.4824 62.1579V58.1972Z" fill="white"/>
<path d="M70.9715 35.6034C70.9214 35.6 70.8719 35.5898 70.8245 35.5731C70.7306 35.534 70.656 35.4593 70.6171 35.3654C70.5782 35.2715 70.5781 35.1661 70.6169 35.0721L84.5909 1.04095C84.6345 0.954106 84.7095 0.886985 84.8006 0.85309C84.8918 0.819194 84.9925 0.82104 85.0824 0.858256C85.1722 0.895471 85.2447 0.965295 85.2851 1.05368C85.3255 1.14207 85.3309 1.24246 85.3002 1.33466L71.3262 35.3615C71.2978 35.4324 71.2489 35.4933 71.1858 35.5364C71.1226 35.5795 71.048 35.6028 70.9715 35.6034Z" fill="white"/>
</g>
<defs>
<clipPath id="clip0_1140_495">
<rect width="149" height="65" fill="white"/>
</clipPath>
</defs>
</svg>
