<svg width="189" height="27" viewBox="0 0 189 27" fill="none" xmlns="http://www.w3.org/2000/svg">
<path d="M16.9062 6.74238C18.571 8.2495 19.4034 10.5236 19.4034 13.5647V26.0896H14.6851V23.4883C14.0718 24.4229 13.1983 25.1365 12.0644 25.629C10.9304 26.1215 9.56321 26.3682 7.96267 26.3692C6.3626 26.3692 4.96207 26.0959 3.76109 25.5492C2.56012 25.0026 1.63314 24.2424 0.98016 23.2684C0.32672 22.2945 0 21.1941 0 19.9673C0 18.0467 0.713558 16.5063 2.14067 15.346C3.56779 14.1857 5.81529 13.6053 8.88317 13.6049H14.4055V13.2844C14.4055 11.7916 13.9585 10.6448 13.0646 9.84379C12.1707 9.04283 10.8437 8.64258 9.08365 8.64304C7.88237 8.64393 6.68864 8.83306 5.54591 9.20353C4.38563 9.57765 3.40524 10.0977 2.60474 10.7636L0.64026 7.12459C1.76031 6.27137 3.10765 5.61794 4.68229 5.16427C6.3091 4.70328 7.99283 4.47418 9.68367 4.48378C12.8311 4.48239 15.2386 5.23526 16.9062 6.74238ZM12.3446 21.8679C13.3002 21.3161 14.0302 20.4445 14.4055 19.4068V16.9262H9.24319C6.36214 16.9262 4.92161 17.8742 4.92161 19.7702C4.92161 20.6771 5.28186 21.3971 6.00235 21.9303C6.72285 22.4636 7.72335 22.7304 9.00387 22.7308C10.2576 22.729 11.3711 22.4414 12.3446 21.8679Z" fill="white"/>
<path d="M38.3745 4.48178V9.24315C37.9921 9.16774 37.6037 9.12757 37.214 9.12315C35.2661 9.12315 33.7456 9.69011 32.6524 10.824C31.5591 11.958 31.0125 13.592 31.0125 15.7262V26.0897H26.0098V4.72457H30.7718V7.84609C32.2124 5.60322 34.7466 4.48178 38.3745 4.48178Z" fill="white"/>
<path d="M56.4595 24.9292C55.8726 25.4092 55.1588 25.7695 54.3181 26.01C53.4521 26.2528 52.5565 26.3738 51.6572 26.3693C49.3093 26.3693 47.4951 25.7558 46.2146 24.529C44.9341 23.3021 44.2941 21.5147 44.2945 19.1669V8.88387H40.7734V4.88207H44.2952V0H49.2966V4.88207H55.0187V8.88387H49.2966V19.0469C49.2966 20.0874 49.5509 20.8812 50.0596 21.4282C50.5683 21.9753 51.3011 22.2482 52.2579 22.2468C53.3784 22.2468 54.3121 21.9534 55.0589 21.3665L56.4595 24.9292Z" fill="white"/>
<path d="M80.0682 17.006H63.3029C63.5956 18.5807 64.3623 19.8279 65.6031 20.7477C66.8438 21.6675 68.3845 22.1277 70.225 22.1281C72.5724 22.1281 74.5064 21.3544 76.0269 19.8071L78.7079 22.8884C77.7479 24.0357 76.5342 24.9028 75.0669 25.4897C73.5995 26.0765 71.9456 26.3697 70.105 26.3692C67.7572 26.3692 65.6898 25.9024 63.9029 24.9687C62.116 24.035 60.7356 22.7346 59.7617 21.0675C58.7877 19.4027 58.3008 17.5154 58.3008 15.4057C58.3008 13.3247 58.7743 11.4506 59.7214 9.78352C60.6447 8.14022 62.0102 6.78867 63.6629 5.88231C65.3429 4.94862 67.2369 4.48178 69.3447 4.48178C71.4258 4.48178 73.2864 4.94192 74.9267 5.86219C76.5502 6.76587 77.8827 8.1133 78.7683 9.74676C79.6881 11.4116 80.1482 13.3388 80.1487 15.5285C80.1487 15.8735 80.1219 16.366 80.0682 17.006ZM65.2833 9.90353C64.1762 10.8511 63.5026 12.1117 63.2626 13.6854H75.3866C75.173 12.1385 74.5195 10.8846 73.4263 9.92365C72.3331 8.96268 70.9726 8.48242 69.3447 8.48289C67.7442 8.48289 66.3904 8.95643 65.2833 9.90353Z" fill="white"/>
<path d="M98.0758 26.0897L94.1912 20.4078L90.0292 26.0897H81.7891L90.032 15.2455L82.0298 4.40198H90.5925L94.434 9.88199L98.4351 4.40198H106.482L98.4754 14.9631L106.761 26.0897H98.0758Z" fill="white"/>
<path d="M125.505 6.74238C127.169 8.2495 128.002 10.5236 128.002 13.5646V26.0896H123.281V23.4883C122.667 24.4229 121.793 25.1365 120.66 25.629C119.527 26.1215 118.16 26.3682 116.558 26.3692C114.957 26.3692 113.557 26.0958 112.357 25.5492C111.157 25.0026 110.23 24.2424 109.576 23.2684C108.922 22.2945 108.595 21.1941 108.596 19.9672C108.596 18.0467 109.309 16.5063 110.736 15.346C112.164 14.1857 114.411 13.6053 117.478 13.6049H123.001V13.2844C123.001 11.7916 122.554 10.6447 121.66 9.84379C120.767 9.04283 119.44 8.64258 117.679 8.64304C116.477 8.64399 115.284 8.83311 114.141 9.20353C112.98 9.57765 112 10.0977 111.2 10.7636L109.239 7.12459C110.359 6.27137 111.706 5.61793 113.28 5.16427C114.907 4.70332 116.591 4.47423 118.281 4.48378C121.429 4.48239 123.837 5.23526 125.505 6.74238ZM120.942 21.8679C121.898 21.3163 122.628 20.4446 123.003 19.4068V16.9262H117.842C114.96 16.9262 113.52 17.8742 113.52 19.7702C113.52 20.6771 113.88 21.3971 114.6 21.9303C115.32 22.4635 116.321 22.7304 117.602 22.7308C118.855 22.729 119.968 22.4413 120.942 21.8679Z" fill="white"/>
<path d="M146.972 4.48178V9.24315C146.59 9.16774 146.201 9.12757 145.812 9.12315C143.864 9.12315 142.343 9.69011 141.25 10.824C140.157 11.958 139.61 13.592 139.609 15.7262V26.0897H134.607V4.72457H139.369V7.84609C140.81 5.60322 143.344 4.48178 146.972 4.48178Z" fill="white"/>
<path d="M165.056 24.9292C164.47 25.4092 163.756 25.7695 162.916 26.01C162.05 26.2528 161.154 26.3738 160.255 26.3693C157.907 26.3693 156.093 25.7558 154.813 24.529C153.532 23.3021 152.892 21.5147 152.892 19.1669V8.88387H149.371V4.88207H152.892V0H157.894V4.88207H163.616V8.88387H157.894V19.0469C157.894 20.0874 158.149 20.8812 158.657 21.4282C159.166 21.9753 159.899 22.2482 160.855 22.2468C161.975 22.2468 162.909 21.9534 163.656 21.3665L165.056 24.9292Z" fill="white"/>
<path d="M188.664 17.006H171.899C172.192 18.5807 172.958 19.8279 174.199 20.7477C175.44 21.6675 176.981 22.1277 178.821 22.1281C181.169 22.1281 183.103 21.3544 184.623 19.8071L187.304 22.8884C186.344 24.0357 185.13 24.9028 183.663 25.4897C182.196 26.0765 180.542 26.3697 178.701 26.3692C176.354 26.3692 174.286 25.9024 172.499 24.9687C170.712 24.035 169.331 22.7346 168.357 21.0675C167.386 19.4027 166.9 17.5154 166.9 15.4057C166.9 13.3247 167.374 11.4506 168.321 9.78352C169.244 8.14022 170.61 6.78867 172.262 5.88231C173.943 4.94862 175.837 4.48178 177.944 4.48178C180.025 4.48178 181.886 4.94192 183.526 5.86219C185.15 6.76587 186.482 8.1133 187.368 9.74676C188.288 11.4116 188.748 13.3388 188.748 15.5285C188.746 15.8735 188.718 16.366 188.664 17.006ZM173.879 9.90353C172.772 10.8511 172.099 12.1117 171.859 13.6854H183.983C183.769 12.1385 183.116 10.8846 182.022 9.92365C180.929 8.96268 179.569 8.48242 177.941 8.48289C176.34 8.48289 174.986 8.95643 173.879 9.90353Z" fill="white"/>
</svg>
