<svg width="79" height="32" viewBox="0 0 79 32" fill="none" xmlns="http://www.w3.org/2000/svg">
<path d="M9.90746 23.8235C11.007 23.4413 11.9799 22.7849 12.817 21.8609C14.0863 20.458 14.7288 18.7922 14.7288 16.915C14.7288 14.8917 14.0094 13.1516 12.5908 11.7443C11.1745 10.3392 9.42329 9.62653 7.38252 9.62653C5.34175 9.62653 3.55438 10.3347 2.13806 11.7263C0.719473 13.1246 0 14.8737 0 16.933V30.9209H3.71502V23.511L12.2605 30.9209H17.9371L9.90973 23.8213L9.90746 23.8235ZM7.36216 13.3247C8.39159 13.3247 9.23098 13.6619 9.93009 14.3566C10.6292 15.0513 10.9663 15.8831 10.9663 16.9082C10.9663 17.9334 10.6224 18.7337 9.90973 19.4419C9.1993 20.1456 8.3667 20.4895 7.35989 20.4895C6.35309 20.4895 5.49107 20.1523 4.79423 19.4599C4.09511 18.7674 3.758 17.9334 3.758 16.9082C3.758 15.8831 4.09738 15.0513 4.79423 14.3566C5.49334 13.6619 6.33272 13.3247 7.35989 13.3247H7.36216Z" fill="white"/>
<path d="M36.8828 12.5288C34.7809 10.4246 32.1813 9.36121 29.1564 9.36121C26.1314 9.36121 23.4956 10.4178 21.396 12.5086C19.2942 14.5994 18.2285 17.1937 18.2285 20.222C18.2285 23.2502 19.2942 25.8423 21.396 27.9331C23.4979 30.0216 26.1065 31.0782 29.1564 31.0782C32.2062 31.0782 34.7809 30.0148 36.8805 27.9106C38.9824 25.8108 40.048 23.221 40.048 20.2197C40.048 17.2184 38.9824 14.6286 36.8828 12.5266V12.5288ZM29.1564 27.3081C27.1337 27.3081 25.4708 26.6381 24.0658 25.2555C22.6653 23.8729 21.9865 22.2273 21.9865 20.222C21.9865 18.2166 22.6653 16.5687 24.0658 15.1884C25.4662 13.8058 27.1314 13.1358 29.1564 13.1358C31.1813 13.1358 32.8374 13.808 34.2244 15.1861C35.6135 16.5665 36.2877 18.2121 36.2877 20.222C36.2877 22.2318 35.6135 23.8752 34.2244 25.2578C32.8329 26.6381 31.1745 27.3081 29.1564 27.3081Z" fill="white"/>
<path d="M48.1389 27.1912V0H44.3809V30.9658H59.069V27.1912H48.1389Z" fill="white"/>
<path d="M78.3815 13.8643V10.1683H63.6934V30.9659H67.4514V20.1411H78.3815V16.3687H67.4514V13.8643H78.3815Z" fill="white"/>
</svg>
